<?xml version="1.0" encoding="UTF-8"?>
<!-- Generator: visioncortex VTracer 0.6.3 -->
<svg version="1.1" xmlns="http://www.w3.org/2000/svg" width="1280" height="625">
<path d="M0 0 C422.4 0 844.8 0 1280 0 C1280 206.25 1280 412.5 1280 625 C857.6 625 435.2 625 0 625 C0 418.75 0 212.5 0 0 Z " fill="#FBFCFE" transform="translate(0,0)"/>
<path d="M0 0 C1.18 0.01 2.36 0.02 3.58 0.03 C24.91 0.3 24.91 0.3 33.62 4.25 C39.38 6.74 44.8 8.4 51 9.31 C52.98 9.61 54.96 9.93 56.94 10.25 C57.83 10.38 58.73 10.52 59.65 10.65 C62.31 11.4 63.17 12.33 65 14.31 C66.07 14.68 67.14 15.06 68.25 15.44 C71.7 16.8 73.22 18.63 75.38 21.62 C79.76 27.66 85.17 31.05 91.88 34.12 C95.4 35.8 98.1 37.97 101.06 40.5 C112.01 49.73 125.17 57.1 138.75 61.56 C144.13 63.4 148.47 65.7 153.12 68.88 C158.2 72.34 162.95 74.56 168.84 76.29 C172.7 77.54 176.32 79.12 180 80.81 C180.64 81.1 181.27 81.38 181.93 81.68 C184.74 83 186.83 84.12 188.91 86.46 C192.09 89.27 195.38 89.15 199.5 89.44 C208.16 90.13 208.16 90.13 212 92.31 C213.57 92.68 215.16 92.99 216.75 93.25 C222.27 94.18 227.76 95.2 233.25 96.26 C240.29 97.59 247.08 98.47 254.24 98.48 C255.01 98.48 255.78 98.49 256.57 98.49 C258.18 98.5 259.8 98.5 261.41 98.5 C263.86 98.5 266.31 98.52 268.75 98.54 C279.38 98.58 288.24 97.39 298.38 93.94 C299.02 93.72 299.67 93.5 300.34 93.27 C304.06 92.01 307.75 90.68 311.44 89.31 C316.73 87.35 322.11 85.69 327.52 84.06 C330.85 83.05 333.94 81.97 337 80.31 C337.87 79.98 338.73 79.65 339.62 79.31 C342.13 78.43 342.13 78.43 344 76.31 C346.04 74.63 347.78 73.4 350.25 72.44 C354.08 70.87 357.72 68.85 361 66.31 C361 65.65 361 64.99 361 64.31 C364.95 62.36 368.91 60.43 372.88 58.5 C373.98 57.95 375.09 57.41 376.23 56.84 C382.04 54.03 387.66 51.63 393.88 49.92 C396.61 49.14 399.12 48.04 401.69 46.81 C402.61 46.38 403.54 45.95 404.49 45.5 C405.73 44.91 405.73 44.91 407 44.31 C412.43 41.8 417.94 40.06 423.66 38.36 C426.71 37.4 429.65 36.33 432.62 35.19 C437.29 33.44 441.87 32.46 446.79 31.71 C449.03 31.41 449.03 31.41 451 30.31 C452.51 30.24 454.02 30.23 455.53 30.26 C456.95 30.28 456.95 30.28 458.39 30.3 C459.41 30.32 460.44 30.34 461.49 30.36 C462.55 30.38 463.6 30.4 464.69 30.42 C466.94 30.46 469.18 30.51 471.43 30.55 C474.83 30.62 478.23 30.68 481.62 30.73 C483.81 30.78 485.99 30.82 488.18 30.86 C489.69 30.89 489.69 30.89 491.22 30.91 C496.08 31.02 500.67 31.38 505.44 32.32 C512.56 33.54 519.57 33.56 526.77 33.51 C528.22 33.5 529.66 33.5 531.11 33.5 C534.2 33.49 537.29 33.48 540.38 33.46 C545.32 33.44 550.25 33.42 555.19 33.41 C566.59 33.39 577.99 33.35 589.39 33.3 C602.28 33.25 615.16 33.21 628.05 33.19 C628.88 33.19 629.7 33.18 630.56 33.18 C696.15 33.09 696.15 33.09 722.92 37.97 C727.91 38.79 732.97 39.2 738.01 39.69 C741.09 40.08 743.9 40.85 746.85 41.79 C751.95 43.39 756.96 44.12 762.25 44.75 C769.58 45.71 776.47 47.07 783.54 49.28 C788.21 50.67 792.94 51.73 797.7 52.74 C801.51 53.59 805.02 54.69 808.64 56.14 C814.1 58.18 819.63 59.43 825.32 60.64 C826.27 60.85 827.22 61.05 828.2 61.26 C832.16 62.09 836.13 62.92 840.1 63.73 C855.38 66.87 871.01 70.33 883.83 79.73 C885.47 80.93 887.17 82.04 888.89 83.11 C895.22 87.08 899.9 91.17 904.71 96.85 C909.46 101.96 915.38 105.84 921.44 109.25 C924.58 111.78 925.36 114.01 926.82 117.69 C930.1 124.98 935.2 131.43 940.25 137.56 C943.1 141.04 945.16 144.32 947.02 148.4 C948.1 150.51 949.4 152.21 950.88 154.06 C954.07 158.16 956.18 162.55 958.43 167.22 C960.49 171.27 962.91 175.03 965.4 178.84 C967.4 181.93 969.2 185.1 971 188.31 C971.49 189.08 971.99 189.84 972.5 190.62 C974.76 194.68 976.34 198.98 978 203.31 C978.27 204.01 978.54 204.7 978.82 205.42 C980.15 208.92 981.36 212.43 982.5 216 C983.33 218.54 984.09 220.46 985.5 222.75 C989.42 229.45 990.36 237.16 991.39 244.74 C991.93 247.91 992.7 250.92 993.57 254.02 C995.77 262.07 996.4 269.78 996.44 278.12 C996.45 279.66 996.45 279.66 996.47 281.23 C996.41 286.47 995.91 291.07 994.48 296.11 C992.5 303.31 992.74 310.28 992.94 317.69 C993 320.32 993.05 322.95 993.09 325.59 C993.12 326.73 993.15 327.88 993.18 329.07 C992.99 332.49 992.16 335.11 991 338.31 C990.83 340.64 990.73 342.98 990.69 345.31 C989.87 364.01 985.01 381.75 973 396.31 C970.15 399.8 970.15 399.8 967.69 403.56 C962.17 412.56 954.82 420.81 946.46 427.27 C943.77 429.5 941.82 431.86 939.69 434.62 C935.82 439.44 931.83 443.47 927 447.31 C926.24 447.92 925.49 448.53 924.71 449.15 C918.43 454.12 912.02 458.39 904.95 462.16 C902.86 463.28 902.86 463.28 901 465.31 C899.1 465.75 897.2 466.19 895.29 466.61 C892.83 467.37 891.06 468.46 888.88 469.81 C881.17 473.93 871.86 473.62 863.31 474.09 C861.05 474.24 861.05 474.24 859.08 474.82 C856.32 475.47 853.68 475.51 850.84 475.59 C849.66 475.63 848.47 475.67 847.25 475.71 C844.75 475.78 842.25 475.85 839.75 475.92 C838.57 475.96 837.38 475.99 836.16 476.03 C835.07 476.06 833.99 476.09 832.87 476.12 C830.17 476.19 830.17 476.19 828.34 476.81 C824.83 477.56 821.33 477.47 817.77 477.47 C816.52 477.48 816.52 477.48 815.26 477.49 C812.52 477.5 809.78 477.51 807.04 477.52 C805.12 477.52 803.21 477.53 801.29 477.53 C797.28 477.54 793.26 477.55 789.24 477.55 C784.12 477.56 779.01 477.58 773.89 477.61 C769.93 477.63 765.98 477.63 762.02 477.64 C760.13 477.64 758.25 477.65 756.36 477.66 C746.84 477.72 737.99 477.62 728.74 475.01 C723.78 473.74 718.71 473.64 713.62 473.38 C697.71 472.34 682.26 469.68 666.78 465.9 C663.06 465.11 659.37 464.83 655.59 464.55 C652.28 464.25 649.1 463.61 645.85 462.91 C636.45 460.93 626.99 459.27 617.49 457.84 C613.24 457.2 608.99 456.55 604.75 455.88 C604.02 455.76 603.28 455.65 602.53 455.54 C597.97 454.81 593.78 453.64 589.42 452.11 C584.79 450.58 580.05 449.48 575.31 448.31 C574.26 448.05 573.2 447.79 572.12 447.52 C565.34 445.85 558.56 444.3 551.71 442.95 C549 442.31 549 442.31 546.79 441.34 C542.49 439.76 538.08 439.29 533.56 438.69 C532.58 438.55 531.6 438.42 530.59 438.29 C524.08 437.46 517.82 437.05 511.27 437.3 C508.57 437.31 506.09 437.14 503.42 436.85 C484.94 434.89 467.5 436.16 449.38 439.74 C438.6 441.87 428.41 442.85 417.4 442.33 C411.29 442.12 405.83 443.7 400.31 446.31 C395.47 448.58 390.85 450.43 385.62 451.62 C380.78 452.79 376.08 454.25 371.38 455.88 C366.32 457.62 361.35 459.02 356.05 459.86 C353.97 460.22 353.97 460.22 352.18 461.31 C349.66 462.47 347.76 462.6 345 462.73 C338.71 463.21 333.01 464.78 327 466.62 C326 466.92 324.99 467.22 323.96 467.52 C319.02 469 314.22 470.61 309.42 472.52 C303.95 474.54 299.04 474.78 293.25 474.75 C283.49 474.94 276.06 476.78 267 480.31 C260.77 482.23 254.5 483.7 248.09 484.88 C245.82 485.31 245.82 485.31 243 486.31 C241.7 486.46 240.4 486.6 239.06 486.75 C235.93 487.11 233.79 487.82 231 489.31 C225.8 490.41 220.61 490.59 215.31 490.81 C208.18 491.14 201.1 491.59 194 492.31 C191.44 492.54 188.88 492.76 186.32 492.98 C184.03 493.21 181.75 493.48 179.47 493.8 C164.42 495.79 149.3 495.62 134.14 495.57 C130.3 495.56 126.45 495.57 122.61 495.58 C101.63 495.63 80.81 495.05 59.96 492.49 C56.56 492.18 53.21 492.34 49.81 492.56 C49.14 492.59 48.47 492.62 47.78 492.64 C43.07 492.93 38.46 493.85 35 497.31 C30.53 497.77 26.05 497.82 21.56 497.94 C20.32 498.01 19.07 498.08 17.78 498.15 C10.85 498.29 6.63 497.78 1.28 493.15 C-2.05 489.83 -4.02 486.56 -6 482.31 C-6.86 481.04 -7.75 479.78 -8.69 478.56 C-11 475.31 -11 475.31 -11 473.31 C-11.62 473.06 -12.23 472.8 -12.87 472.54 C-15.31 471.14 -15.91 470.21 -17.11 467.71 C-17.47 467 -17.83 466.29 -18.2 465.55 C-18.56 464.79 -18.93 464.03 -19.31 463.25 C-22.25 457.43 -25.27 452.23 -29.46 447.2 C-31.99 444.1 -33.98 440.75 -36 437.31 C-36.67 436.21 -37.33 435.11 -38.02 433.98 C-41.68 427.84 -44.52 422.36 -46 415.31 C-46.74 413.49 -47.52 411.68 -48.31 409.88 C-52.43 400.26 -55.17 390.14 -57.44 379.94 C-61.79 362.46 -75.97 350.17 -88.25 337.88 C-88.78 337.35 -89.3 336.82 -89.84 336.28 C-96.79 329.32 -96.79 329.32 -104.11 322.76 C-108.58 318.98 -110.92 314.47 -113.62 309.38 C-117.58 302.02 -122.28 295.19 -127 288.31 C-127.68 287.32 -128.36 286.33 -129.06 285.31 C-131.27 282.12 -133.46 278.98 -135.91 275.97 C-138.33 272.89 -140.45 269.68 -142.56 266.38 C-143.14 265.48 -143.14 265.48 -143.73 264.57 C-146.91 259.62 -149.72 254.63 -151.5 249 C-151.75 248.23 -152 247.46 -152.26 246.66 C-152.74 245.14 -153.21 243.61 -153.68 242.09 C-155.24 237.12 -157.24 232.64 -159.72 228.06 C-163.15 220.71 -164.65 213.29 -165.88 205.31 C-167.08 197.93 -168.49 190.73 -170.62 183.56 C-170.83 182.87 -171.04 182.17 -171.25 181.45 C-172.21 178.36 -173.19 176.03 -175 173.31 C-177.63 166.05 -178.45 159.13 -178.4 151.46 C-178.4 150.47 -178.4 149.48 -178.41 148.47 C-178.41 146.4 -178.4 144.34 -178.39 142.27 C-178.37 139.12 -178.39 135.98 -178.41 132.83 C-178.41 130.81 -178.4 128.79 -178.4 126.77 C-178.4 125.84 -178.41 124.91 -178.42 123.95 C-178.35 118.03 -177.31 113.76 -175 108.31 C-174.77 107.03 -174.55 105.75 -174.31 104.44 C-172.52 96.72 -165.48 90.64 -160 85.31 C-158.66 83.65 -157.32 81.99 -156 80.31 C-151.27 74.94 -143.72 71.26 -137.12 68.69 C-134.15 67.38 -132.15 65.84 -129.72 63.72 C-120.9 56.48 -120.9 56.48 -115.36 56.16 C-112.87 56.44 -112.87 56.44 -109 57.31 C-111 59.31 -113 61.31 -115 63.31 C-116.13 63.31 -117.27 63.31 -118.44 63.31 C-122.7 63.78 -124.47 65.43 -127.44 68.44 C-131.83 72.74 -135.97 74.86 -141.62 77 C-152.32 81.03 -152.32 81.03 -159.75 89.38 C-160.16 90.34 -160.57 91.31 -161 92.31 C-161.68 93.08 -162.36 93.84 -163.06 94.62 C-165.36 97.81 -165.87 100.41 -166.51 104.23 C-167 106.31 -167 106.31 -169 109.31 C-169.32 111.44 -169.32 111.44 -169.31 113.81 C-169.32 114.71 -169.34 115.62 -169.35 116.56 C-169.36 117.54 -169.37 118.53 -169.37 119.54 C-169.38 120.57 -169.39 121.59 -169.4 122.64 C-169.41 124.82 -169.42 126.99 -169.43 129.17 C-169.44 132.44 -169.49 135.72 -169.54 138.99 C-169.63 151.47 -168.59 161.67 -164 173.31 C-163.48 174.87 -162.98 176.42 -162.49 177.99 C-162.1 179.19 -161.71 180.39 -161.31 181.62 C-159.56 187.12 -158.22 192.57 -157.36 198.27 C-157.09 200.37 -157.09 200.37 -156 202.31 C-155.81 204.37 -155.62 206.44 -155.44 208.5 C-154.54 215.14 -152.46 219.75 -149.1 225.48 C-146.39 230.23 -144.76 234.85 -143.38 240.12 C-141.54 247 -139.05 252.41 -135 258.31 C-133.83 260.21 -132.67 262.1 -131.5 264 C-129.07 267.81 -126.48 271.16 -123.46 274.51 C-121.12 277.39 -119.35 280.58 -117.49 283.79 C-116.11 286.13 -114.65 288.38 -113.12 290.62 C-109.9 295.39 -106.92 300.29 -103.93 305.2 C-103.29 306.23 -102.66 307.25 -102 308.31 C-101.11 309.78 -101.11 309.78 -100.21 311.28 C-97.45 315.06 -94.27 318 -90.81 321.12 C-51.84 357.09 -51.84 357.09 -46.88 382.52 C-44.65 392.14 -40.99 401.49 -36.8 410.4 C-35.96 412.4 -35.47 414.32 -35 416.44 C-33.55 422.86 -29.62 427.9 -26 433.31 C-25.36 434.28 -24.73 435.25 -24.07 436.24 C-21.09 440.76 -18.13 445.21 -14.75 449.44 C-12.59 452.24 -11.35 454.79 -10.19 458.12 C-8.21 463.5 -5.02 467.27 -1.3 471.57 C1.48 474.89 3.85 478.39 6.2 482.02 C10.48 487.51 10.48 487.51 16.79 489.77 C20.17 489.95 23.5 489.94 26.88 489.88 C28.02 489.89 29.17 489.9 30.35 489.91 C36.52 489.85 40.69 489.32 46 486.21 C50.1 484.37 54.59 484.82 59 484.94 C60.01 484.95 61.03 484.96 62.07 484.98 C69.08 485.12 75.92 485.69 82.84 486.78 C94.14 488.4 105.67 488.48 117.06 488.52 C117.74 488.52 118.43 488.52 119.13 488.52 C122.76 488.54 126.39 488.55 130.01 488.55 C132.95 488.56 135.88 488.57 138.82 488.59 C154.94 488.72 170.61 488.35 186.61 486.04 C194.87 484.86 203.17 484.58 211.5 484.25 C213.9 484.15 216.29 484.05 218.69 483.94 C220.15 483.88 221.61 483.82 223.07 483.77 C229.04 483.49 234.37 482.24 240 480.25 C242.52 479.46 244.59 479.08 247.19 478.81 C251.06 478.59 251.06 478.59 254 476.31 C256.24 475.93 258.49 475.63 260.75 475.38 C266.04 474.68 270.16 473.6 275 471.31 C282.79 468.33 290.49 467.88 298.74 467.69 C305.93 467.49 312.16 466.16 318.88 463.5 C330.05 459.36 341.44 456.35 353.26 454.77 C356.36 454.25 358.97 453.31 361.86 452.09 C364.61 451.09 367.39 450.5 370.25 449.88 C375.73 448.67 380.93 447.06 386.22 445.21 C388.71 444.41 391.12 443.81 393.69 443.31 C399.63 442.1 404.97 439.66 410 436.31 C413.94 435.45 417.71 435.19 421.73 435.17 C433.95 434.99 445.52 434.26 457.5 431.75 C473.61 428.48 489.47 428.8 505.82 429.25 C507.95 429.31 510.08 429.36 512.2 429.4 C516.09 429.48 519.98 429.58 523.88 429.69 C525 429.72 526.13 429.75 527.29 429.78 C537.98 430.17 548.16 430.91 558 435.31 C562.59 436.47 567.23 437.38 571.88 438.31 C580.53 440.06 588.77 442.05 597.07 445.06 C602.3 446.89 607.37 448.04 612.85 448.81 C614.07 449 614.07 449 615.32 449.18 C617.9 449.57 620.48 449.94 623.06 450.31 C626.45 450.81 629.84 451.31 633.22 451.81 C634.46 452 634.46 452 635.72 452.18 C655.61 455.18 655.61 455.18 662 457.31 C664.27 457.63 666.54 457.92 668.81 458.19 C673.8 458.81 678.66 459.62 683.56 460.75 C698.27 464.02 713.32 465.52 728.32 466.58 C729.68 466.68 729.68 466.68 731.06 466.79 C731.85 466.84 732.63 466.89 733.44 466.95 C736 467.31 736 467.31 739.12 468.32 C743.34 469.54 747.34 469.59 751.7 469.56 C752.55 469.56 753.39 469.56 754.26 469.56 C757.04 469.56 759.82 469.55 762.61 469.54 C764.57 469.54 766.53 469.54 768.49 469.54 C772.62 469.54 776.74 469.53 780.87 469.52 C786.07 469.5 791.27 469.5 796.47 469.5 C814.5 469.5 832.53 469.49 850.55 468.93 C852.21 468.88 852.21 468.88 853.9 468.83 C859 468.64 863.19 468.16 868 466.31 C870.47 465.97 870.47 465.97 872.86 465.82 C874.19 465.72 874.19 465.72 875.55 465.62 C877.38 465.5 879.21 465.38 881.04 465.28 C886.63 464.85 890.98 463.78 895.99 461.24 C898.09 460.27 899.99 459.82 902.25 459.38 C906.57 458.15 907.92 456.47 911 453.31 C913.33 452.63 915.66 451.97 918 451.31 C920.97 449.31 923.47 446.84 926 444.31 C926.85 443.84 927.69 443.36 928.56 442.88 C932.81 440.11 935.59 436.05 938.71 432.12 C943.09 426.75 948.03 422.11 953.31 417.62 C956.25 415.1 958.25 412.81 960 409.31 C960.66 408.32 961.32 407.33 962 406.31 C962.46 405.38 962.46 405.38 962.94 404.42 C964.15 402.02 965.53 399.81 967 397.56 C967.52 396.76 968.03 395.96 968.56 395.14 C969.27 394.24 969.27 394.24 970 393.31 C970.66 393.31 971.32 393.31 972 393.31 C972.29 392.58 972.58 391.84 972.88 391.08 C973.54 389.44 974.23 387.81 974.96 386.2 C978.38 378.49 979.61 370.57 981 362.31 C981.19 361.45 981.39 360.59 981.59 359.7 C982.24 355.92 981.96 352.17 981.84 348.35 C982 345.31 982 345.31 982.99 342.63 C984.17 338.75 984.3 335.15 984.31 331.13 C984.33 329.55 984.36 327.96 984.38 326.38 C984.41 323.91 984.44 321.44 984.46 318.97 C984.48 316.56 984.52 314.16 984.56 311.76 C984.56 310.67 984.56 310.67 984.56 309.55 C984.65 304.93 985.57 301.41 987.32 297.15 C988.26 294.62 988.37 292.33 988.36 289.64 C988.36 288.65 988.36 287.65 988.36 286.63 C988.35 285.62 988.33 284.61 988.31 283.56 C988.32 282.02 988.32 282.02 988.32 280.45 C988.29 274.11 988.29 274.11 986 268.31 C985.61 266.41 985.28 264.49 985 262.56 C984.45 258.97 983.85 255.5 982.88 252 C982 248.31 982 248.31 982.19 245.06 C981.86 238.55 978.9 232.33 975.45 226.85 C973.77 223.9 973.02 221.16 972.19 217.88 C969.42 207.84 965.76 198.32 959.7 189.78 C957.48 186.56 955.45 183.23 953.44 179.88 C952.85 178.9 952.85 178.9 952.25 177.91 C950.09 174.28 948.12 170.63 946.31 166.81 C944.46 162.94 942.23 160.09 939.33 156.95 C938 155.31 938 155.31 936.56 151.94 C934.86 147.98 932.72 145.24 930.04 141.91 C927.68 138.9 925.44 135.82 923.25 132.69 C922.14 131.12 922.14 131.12 921.02 129.52 C919 126.31 919 126.31 917.48 122.66 C914.9 116.82 910.47 114.17 905.31 110.69 C900.79 107.57 897.03 104.51 893.5 100.25 C888.31 94.07 881.83 90.43 875 86.31 C873.94 85.6 872.87 84.88 871.78 84.15 C868.66 82.08 865.46 80.69 862 79.31 C861.34 79.02 860.69 78.72 860.01 78.41 C852.94 75.33 845.69 73.79 838.17 72.3 C834.49 71.58 830.81 70.81 827.14 70.05 C826.43 69.9 825.71 69.75 824.97 69.6 C814.65 67.42 804.63 64.45 794.56 61.31 C779.57 56.69 764.65 53.39 749.14 51.01 C747.9 50.82 746.66 50.63 745.38 50.43 C743.72 50.18 743.72 50.18 742.02 49.92 C739 49.31 739 49.31 736.52 48.31 C733.42 47.09 730.53 46.7 727.22 46.28 C726.57 46.19 725.93 46.11 725.26 46.02 C723.89 45.85 722.52 45.68 721.15 45.51 C719.1 45.25 717.05 44.99 715.01 44.72 C708.88 43.95 702.8 43.28 696.64 42.85 C692.91 42.59 689.18 42.33 685.45 42.05 C664.58 40.49 643.85 40.05 622.92 40.14 C618.72 40.16 614.51 40.16 610.31 40.17 C602.39 40.18 594.47 40.2 586.56 40.23 C572.33 40.27 558.11 40.3 543.88 40.33 C538.91 40.33 533.93 40.35 528.96 40.37 C525.87 40.38 522.79 40.38 519.71 40.39 C518.28 40.39 516.86 40.4 515.44 40.4 C508.52 40.44 501.84 40.35 495 39.31 C492.4 39.18 489.8 39.09 487.2 39.03 C486.13 39 486.13 39 485.04 38.98 C482.77 38.92 480.51 38.86 478.25 38.81 C475.28 38.74 472.3 38.67 469.33 38.59 C468.61 38.58 467.9 38.56 467.16 38.54 C461.87 38.38 456.62 37.99 451.35 37.43 C447.94 37.26 445.22 38.24 442 39.31 C439.88 39.63 437.75 39.91 435.62 40.19 C430.75 40.9 426.89 42 422.51 44.18 C419.25 45.65 415.9 46.72 412.5 47.81 C406.82 49.65 401.39 51.75 396 54.31 C391.7 56.3 387.46 58.22 382.94 59.62 C369.73 63.95 358.45 70.26 346.97 77.99 C335.52 85.67 324.06 91.02 311 95.31 C308.73 96.06 306.47 96.81 304.2 97.56 C302.69 98.06 301.18 98.56 299.66 99.06 C295.42 100.47 291.25 101.96 287.12 103.66 C281.26 105.46 275.23 105.47 269.16 105.48 C268.33 105.48 267.49 105.49 266.63 105.49 C264.86 105.5 263.09 105.5 261.32 105.5 C258.67 105.5 256.02 105.52 253.37 105.54 C225.97 105.63 225.97 105.63 214.05 101.04 C210.86 99.91 207.58 99.35 204.26 98.74 C202.82 98.47 201.39 98.15 199.98 97.79 C197.87 97.28 195.84 97.06 193.69 96.88 C188.29 96.31 183.57 95.36 179 92.31 C179 91.65 179 90.99 179 90.31 C177.74 89.92 176.48 89.53 175.19 89.12 C170.52 87.58 166.14 85.58 161.69 83.49 C159.28 82.44 156.96 81.66 154.44 80.94 C149.8 79.49 146.36 76.87 142.47 74.02 C137.61 70.66 132.3 68.69 126.69 66.94 C116.83 63.74 108.27 58.45 100 52.31 C98.08 50.92 96.17 49.52 94.25 48.12 C93.33 47.46 92.42 46.79 91.47 46.1 C87.77 43.42 84.18 40.89 80.06 38.88 C73.57 35.56 68.17 31.38 64 25.31 C64 24.65 64 23.99 64 23.31 C63.15 23.04 62.31 22.78 61.44 22.5 C58 21.31 58 21.31 54.77 19.82 C51.02 18.2 47.35 17.56 43.31 16.94 C36.03 15.72 29.71 13.41 23 10.31 C19.41 9.12 15.96 8.92 12.22 8.67 C11.45 8.62 10.68 8.57 9.89 8.52 C8.26 8.42 6.63 8.32 5 8.22 C3.35 8.12 1.7 8 0.05 7.89 C-9.52 7.2 -17.87 6.82 -27 10.31 C-35.6 13.38 -35.6 13.38 -40.5 13.56 C-47.79 14.09 -54.33 17.52 -60.93 20.44 C-62.99 21.31 -65.07 22.05 -67.18 22.79 C-76.06 26.07 -82.6 33.52 -88.16 40.91 C-89.89 43.17 -91.73 45.19 -93.69 47.25 C-97.08 51.04 -98.91 55.09 -100.76 59.8 C-102.14 62.59 -103.63 64.31 -106 66.31 C-106.66 66.31 -107.32 66.31 -108 66.31 C-107.45 61.81 -106.31 58.47 -104.12 54.5 C-103.61 53.54 -103.1 52.59 -102.57 51.61 C-101 49.31 -101 49.31 -98 48.31 C-96.52 46.89 -96.52 46.89 -95.06 45.06 C-91.74 41.14 -88.3 37.34 -84.81 33.56 C-84.3 33.01 -83.79 32.45 -83.26 31.88 C-80.57 28.96 -77.81 26.12 -75 23.31 C-74.34 22.51 -73.68 21.7 -73 20.88 C-68.53 17.06 -63.46 15.32 -58 13.31 C-57.24 13.03 -56.47 12.74 -55.68 12.44 C-38.22 5.92 -38.22 5.92 -28.91 4.82 C-25.9 4.3 -23.37 3.39 -20.53 2.28 C-13.61 -0.08 -7.26 -0.18 0 0 Z " fill="#06070A" transform="translate(216,71.6875)"/>
<path d="M0 0 C0.99 0 1.98 0 3 0 C3.06 0.92 3.12 1.83 3.18 2.77 C3.31 4.56 3.31 4.56 3.44 6.38 C3.52 7.56 3.6 8.74 3.68 9.96 C3.81 12.92 3.81 12.92 5 15 C5.1 16.47 5.15 17.94 5.16 19.41 C5.17 20.79 5.17 20.79 5.19 22.19 C5.2 23.18 5.2 24.17 5.21 25.2 C5.24 27.29 5.27 29.39 5.3 31.49 C5.34 34.8 5.37 38.11 5.4 41.43 C5.43 44.62 5.47 47.81 5.52 51.01 C5.53 52.48 5.53 52.48 5.53 53.98 C5.64 60.01 6.59 64.46 9 70 C9.4 71.47 9.76 72.95 10.06 74.44 C10.74 77.75 10.74 77.75 11.53 81.04 C13.09 87.17 13.4 93.26 13.66 99.55 C13.98 102.83 14.72 105 16 108 C16.37 109.99 16.7 111.99 17 114 C17.43 116.03 17.89 118.05 18.38 120.06 C18.73 121.56 18.73 121.56 19.09 123.1 C19.88 126.04 19.88 126.04 21.56 128.54 C23.17 131.29 23.48 133.16 23.69 136.31 C23.79 137.64 23.79 137.64 23.89 138.99 C23.92 139.65 23.96 140.32 24 141 C24.99 141.33 25.98 141.66 27 142 C26.67 142.66 26.34 143.32 26 144 C26.52 146.33 27.14 148.64 27.81 150.94 C28.17 152.18 28.53 153.43 28.89 154.71 C29.87 158.09 29.87 158.09 32 161 C33.65 166.69 33.34 172.9 33.52 178.78 C33.55 179.65 33.59 180.52 33.62 181.41 C33.65 182.2 33.67 182.98 33.7 183.79 C33.87 186.03 33.87 186.03 35.02 187.89 C36.37 190.8 36.16 193.12 36.05 196.31 C36.03 197.55 36.01 198.8 35.98 200.07 C35.91 202.66 35.83 205.25 35.75 207.83 C35.6 216.38 36.78 223.1 40 231 C44.03 241.61 44.03 241.61 45.06 247.31 C45.9 251.93 46.99 256.22 50.62 259.44 C53.55 262.77 53.07 267.92 53.25 272.19 C52.98 276.27 52.63 277.09 50 280 C49.31 281.15 48.65 282.32 48 283.5 C46.85 285.58 45.8 287.23 44.25 289.06 C42.52 291.74 42.79 293.88 43 297 C48.63 300.59 54.07 300.61 60.62 300.81 C62.18 300.89 62.18 300.89 63.77 300.97 C70.15 301.22 70.15 301.22 76 299 C78.84 298.65 81.59 298.4 84.44 298.25 C85.56 298.17 85.56 298.17 86.71 298.08 C90.21 297.88 92.48 297.78 95.75 299.17 C96.49 299.44 97.24 299.72 98 300 C100.41 298.9 100.41 298.9 102.56 297.06 C106.47 293.98 106.47 293.98 109.16 294.09 C111.98 295.49 112.55 297.98 113.79 300.73 C115.56 304.04 118.02 306.55 120.61 309.24 C122 311 122 311 122 314 C123.18 314.37 123.18 314.37 124.38 314.75 C127.32 316.15 127.9 317.01 129 320 C138.28 320.63 147.11 318.54 154.28 312.5 C154.85 312 155.42 311.51 156 311 C158.02 309.29 158.02 309.29 160 308 C163.25 308.31 163.25 308.31 166 309 C162.33 313.01 158.86 315.53 154 318 C153.34 318 152.68 318 152 318 C151.67 318.99 151.34 319.98 151 321 C144.64 325.41 137.58 327.17 130 328 C129.16 328.11 128.31 328.21 127.45 328.32 C125.13 328.5 123.26 328.55 121 328 C118.62 325.19 118.62 325.19 117 322 C116.01 320.99 115.01 319.99 114 319 C113.04 317.79 112.1 316.56 111.19 315.31 C110.67 314.62 110.16 313.92 109.63 313.21 C109.09 312.48 108.55 311.75 108 311 C106.88 309.5 105.75 308 104.62 306.5 C103.75 305.33 102.88 304.17 102 303 C97.68 305.03 97.68 305.03 94 308 C91.5 308.25 91.5 308.25 89 308 C88.34 307.34 87.68 306.68 87 306 C84.45 305.99 82.03 306.09 79.5 306.31 C78.47 306.39 78.47 306.39 77.41 306.46 C73.58 306.72 73.58 306.72 70 308 C65.44 308.3 60.88 308.28 56.31 308.31 C55.04 308.34 53.78 308.37 52.47 308.4 C45.44 308.45 40.67 308.34 35 304 C34 303 34 303 33.56 299.88 C34.14 294.72 36.4 292.53 40 289 C42.37 286.63 42.42 285.23 43 282 C43.33 281.67 43.66 281.34 44 281 C44.14 273.9 43.95 268.3 39.2 262.89 C37.04 259.5 36.91 255.6 36.46 251.67 C36.15 248.78 36.15 248.78 34 246 C33.53 244.11 33.06 242.23 32.63 240.33 C31.95 237.83 30.99 235.59 29.97 233.21 C27.3 225.96 27.4 218.68 27.38 211.06 C27.36 208.97 27.34 206.87 27.3 204.77 C27.28 202.89 27.26 201.01 27.26 199.13 C27.01 196.09 26.41 194.62 25 192 C25.01 189.9 25.03 187.8 25.13 185.7 C25.59 176.23 24.2 169.14 20.46 160.48 C19.2 157.49 18.37 154.8 17.75 151.62 C17.34 147.97 17.34 147.97 15 146 C15.06 144.09 15.13 142.17 15.32 140.27 C15.15 137.79 15.15 137.79 13.16 135.44 C10.03 131.06 9.36 125.94 8.31 120.75 C7.89 118.77 7.47 116.78 7.05 114.8 C6.87 113.92 6.69 113.05 6.51 112.15 C6.08 109.97 6.08 109.97 5 108 C4.77 104.73 4.61 101.48 4.48 98.21 C4.25 93.53 3.39 89.5 2 85 C1.46 82.22 1.01 79.44 0.56 76.65 C0.12 74.04 0.12 74.04 -1.01 71.99 C-2.48 67.55 -2.32 63.23 -2.34 58.59 C-2.36 57.59 -2.37 56.58 -2.39 55.55 C-2.45 51.26 -2.49 46.97 -2.53 42.68 C-2.57 39.55 -2.61 36.41 -2.66 33.28 C-2.66 31.82 -2.66 31.82 -2.67 30.34 C-2.69 29.43 -2.7 28.53 -2.71 27.6 C-2.72 26.41 -2.72 26.41 -2.73 25.19 C-3.03 22.75 -3.86 21.16 -5 19 C-5.12 16.25 -5.12 16.25 -5 14 C-5.66 14 -6.32 14 -7 14 C-7.17 14.55 -7.34 15.09 -7.51 15.65 C-9.58 22.1 -12.23 28.14 -15.13 34.25 C-16.8 37.88 -18.14 41.25 -18.87 45.19 C-21.39 57.8 -28.8 70.12 -34.23 81.68 C-37.68 89.05 -40.92 96.47 -44 104 C-46.24 109.45 -48.86 114.62 -51.67 119.81 C-52.21 120.8 -52.21 120.8 -52.76 121.82 C-53.13 122.5 -53.49 123.18 -53.87 123.88 C-55.02 126.03 -56.13 128.2 -57.24 130.37 C-61.08 137.85 -65.04 144.7 -70.17 151.4 C-72.74 155.05 -74.53 158.96 -76.45 162.98 C-79.17 168.29 -82.62 173.1 -86 178 C-87.68 180.45 -89.34 182.91 -91 185.38 C-91.43 186.01 -91.85 186.64 -92.29 187.3 C-95 191.37 -97.46 195.52 -99.81 199.81 C-104.79 208.73 -110.94 216.8 -117 225 C-120.92 230.33 -123.95 234.7 -126 241 C-127.43 243.11 -128.97 245.11 -130.55 247.11 C-132.12 249.08 -132.12 249.08 -133.62 251.75 C-135.18 254.29 -136.65 256.15 -139 258 C-142.02 257.82 -142.84 257.16 -145 255 C-148.94 245.96 -151.66 236.41 -152.75 226.62 C-153.56 220.28 -155.37 214.64 -157.5 208.62 C-160.22 200.91 -161.78 193.98 -162.55 185.83 C-163.81 175.04 -167.34 164.74 -170.84 154.52 C-173.26 147.19 -174.87 139.76 -176.31 132.19 C-178.75 119.76 -181.97 107.45 -185.72 95.36 C-186.14 94.02 -186.14 94.02 -186.56 92.65 C-187.09 90.98 -187.62 89.31 -188.17 87.65 C-189.78 82.57 -190.25 78.33 -190 73 C-190.99 73 -191.98 73 -193 73 C-193.23 73.68 -193.47 74.35 -193.71 75.05 C-195.32 78.72 -197.39 81.88 -199.62 85.19 C-200.03 85.8 -200.43 86.41 -200.84 87.03 C-203.35 90.79 -206.05 94.28 -208.94 97.75 C-213.22 103.05 -216.28 108.68 -219.31 114.75 C-219.82 115.75 -220.33 116.75 -220.86 117.79 C-222.25 120.52 -223.63 123.26 -225 126 C-225.86 127.7 -225.86 127.7 -226.74 129.43 C-227.87 131.74 -228.88 134.04 -229.81 136.44 C-230.15 137.29 -230.48 138.13 -230.82 139.01 C-231.41 140.49 -231.41 140.49 -232 142 C-233.04 144.61 -234.08 147.21 -235.12 149.81 C-235.63 151.07 -236.13 152.33 -236.63 153.58 C-237.08 154.71 -237.54 155.84 -238 157 C-238.31 157.79 -238.61 158.58 -238.93 159.39 C-239.28 160.25 -239.64 161.11 -240 162 C-240.26 162.66 -240.53 163.33 -240.8 164.01 C-243.19 169.74 -246.21 174.47 -250 179.38 C-250.52 180.07 -251.04 180.77 -251.58 181.49 C-254.11 184.82 -256.41 187.74 -260 190 C-258.61 187.04 -256.97 184.47 -255.06 181.81 C-252.52 178.06 -251.05 174.62 -249.77 170.3 C-248.93 167.8 -247.84 165.59 -246.62 163.25 C-244.7 159.53 -243.1 155.8 -241.62 151.88 C-237.08 139.86 -231.88 128.48 -225.75 117.19 C-225.23 116.23 -224.71 115.26 -224.18 114.27 C-223.43 112.92 -223.43 112.92 -222.67 111.54 C-222.01 110.34 -222.01 110.34 -221.33 109.11 C-220.05 107.08 -218.74 105.63 -217 104 C-213.99 100.34 -211.12 96.58 -208.25 92.81 C-207.45 91.77 -206.65 90.72 -205.83 89.64 C-203.81 87.26 -203.81 87.26 -204 85 C-203.34 84.34 -202.68 83.68 -202 83 C-200.97 81.21 -199.97 79.39 -199 77.56 C-197.42 74.6 -195.86 71.79 -194 69 C-194.2 66.93 -194.2 66.93 -194.75 64.75 C-195.17 61.84 -195.25 60.47 -193.84 57.86 C-192.31 56.01 -190.93 54.43 -189 53 C-188.01 53 -187.02 53 -186 53 C-185.67 53.33 -185.34 53.66 -185 54 C-184.55 53.5 -184.09 53.01 -183.62 52.5 C-182 51 -182 51 -180 51 C-180 51.66 -180 52.32 -180 53 C-180.66 53 -181.32 53 -182 53 C-186.75 64.46 -180.09 80.01 -176.56 91.38 C-172.44 104.68 -169.04 117.92 -166.71 131.67 C-166.09 134.56 -165.31 136.42 -164 139 C-163.8 140.27 -163.8 140.27 -163.59 141.56 C-162.74 146.54 -161.14 151.25 -159.62 156.06 C-155.81 168.45 -152.87 180.37 -151.62 193.27 C-150.96 197.25 -149.67 200.34 -148 204 C-147.23 206.3 -146.5 208.61 -145.81 210.94 C-145.47 212.08 -145.12 213.22 -144.77 214.4 C-144.06 217.72 -144.01 220.58 -144.09 223.95 C-143.93 227.59 -142.74 230.89 -141.56 234.31 C-141.33 235.01 -141.1 235.72 -140.87 236.44 C-140.25 238.3 -139.63 240.15 -139 242 C-138.67 242.99 -138.34 243.98 -138 245 C-136.35 245.33 -134.7 245.66 -133 246 C-132.75 244.8 -132.5 243.61 -132.25 242.38 C-131.21 238.19 -129.69 235.36 -127 232 C-126.34 232 -125.68 232 -125 232 C-123.68 230.59 -123.68 230.59 -122.38 228.69 C-121.59 227.59 -121.59 227.59 -120.78 226.48 C-120.19 225.66 -119.61 224.84 -119 224 C-118.33 223.12 -117.66 222.24 -116.97 221.34 C-113.36 216.56 -110.37 212.09 -108.13 206.54 C-106.59 203.07 -104.75 199.8 -102.88 196.5 C-102.53 195.88 -102.18 195.25 -101.82 194.61 C-99.24 190.12 -99.24 190.12 -97 189 C-96.32 187.68 -95.65 186.34 -95 185 C-94.34 184.34 -93.68 183.68 -93 183 C-90.77 180.49 -89.18 178.55 -88.15 175.34 C-86.73 171.2 -84.73 167.6 -82.56 163.81 C-82.17 163.1 -81.77 162.39 -81.37 161.66 C-78.98 157.43 -76.61 154.42 -72.96 151.2 C-70.58 148.53 -69.72 146.13 -68.56 142.75 C-66.87 138.11 -65.05 134.17 -62.32 130.07 C-57.83 123 -54.62 115.2 -51.48 107.46 C-49.62 103.11 -47.6 98.84 -45.56 94.56 C-45.17 93.74 -44.78 92.91 -44.37 92.06 C-43.6 90.45 -42.83 88.83 -42.06 87.21 C-32.54 67.46 -32.54 67.46 -25.8 46.67 C-24.5 42.33 -22.5 38.34 -20.54 34.27 C-19.06 31.13 -17.77 27.97 -16.5 24.75 C-14.27 19.32 -11.47 14.71 -8 10 C-7.46 9.25 -6.91 8.51 -6.36 7.74 C-4.34 5.01 -2.4 2.4 0 0 Z " fill="#06070A" transform="translate(923,143)"/>
<path d="M0 0 C3.9 2.05 6.89 4.86 9.95 7.99 C12 10 14.13 11.67 16.44 13.38 C19.16 15.46 21.55 17.44 23.69 20.12 C25.9 23.1 25.9 23.1 28.88 25.25 C32.51 28.13 34.84 31.83 37.41 35.65 C39.02 38.1 39.02 38.1 41.12 40.62 C50.12 52.02 55.46 65.92 59.32 79.78 C59.96 82.04 59.96 82.04 61.02 84.22 C62.64 88.81 62.79 93.58 63.21 98.41 C63.66 103.1 63.66 103.1 65.04 107.58 C66.37 110.94 66.38 114.18 66.38 117.75 C66.37 118.49 66.37 119.23 66.37 119.99 C66.1 132.46 62.15 144.35 58 156 C57.53 157.44 57.53 157.44 57.06 158.91 C53.08 170.55 48.07 181.66 40 191 C39.33 192.19 39.33 192.19 38.64 193.4 C36.86 196.23 34.95 198.12 32.44 200.31 C31.26 201.36 31.26 201.36 30.06 202.43 C28 204 28 204 26 204 C25.67 204.99 25.34 205.98 25 207 C23.58 208.28 23.58 208.28 21.81 209.5 C21.24 209.9 20.67 210.3 20.08 210.72 C17.47 212.33 14.75 213.65 12 215 C10.94 215.57 9.87 216.13 8.77 216.72 C-3.39 223.09 -15.35 226.25 -29.19 225.94 C-33.23 225.87 -37.06 226.41 -41.06 227 C-52 228.53 -62.99 228.26 -74 228 C-75.29 227.97 -76.58 227.94 -77.91 227.91 C-83.76 227.62 -89.31 226.76 -95.02 225.55 C-108.11 222.79 -120.96 222.29 -134.31 222.14 C-136.7 222.02 -138.72 221.68 -141 221 C-141.06 222.22 -141.12 223.43 -141.19 224.69 C-141.62 228.72 -142.7 231.91 -144.31 235.62 C-147.22 242.74 -148.34 249.91 -149.55 257.48 C-150.62 264.13 -152.08 270.37 -154.06 276.81 C-155.4 281.37 -156.33 286 -157.29 290.65 C-157.94 293.7 -158.69 296.68 -159.5 299.69 C-160.85 304.92 -161.66 310.16 -162.44 315.5 C-165.26 334.32 -165.26 334.32 -170.44 340.31 C-173 342 -173 342 -175.62 342.12 C-178.69 340.68 -179.54 339 -181 336 C-180.07 334.82 -179.13 333.66 -178.19 332.5 C-177.67 331.85 -177.14 331.2 -176.61 330.53 C-175 329 -175 329 -172 329 C-171.89 328.32 -171.79 327.64 -171.68 326.94 C-171.19 323.81 -170.69 320.69 -170.19 317.56 C-169.94 315.96 -169.94 315.96 -169.69 314.32 C-168.77 308.67 -167.61 303.39 -165.68 298 C-164.67 295.03 -164.12 292.02 -163.56 288.94 C-162.55 283.61 -161.37 278.37 -160 273.12 C-158.54 267.55 -157.46 262 -156.56 256.31 C-155.55 250.02 -153.79 244.61 -151.33 238.71 C-148.98 232.15 -147.67 225.33 -146.21 218.53 C-143.92 207.92 -141.04 197.66 -137.56 187.38 C-137.18 186.23 -136.8 185.08 -136.4 183.89 C-134.39 177.88 -132.26 171.96 -129.81 166.12 C-129.02 164.05 -128.47 162.04 -128 159.88 C-127.19 156.27 -125.72 153.36 -123.99 150.11 C-122.94 147.87 -122.35 145.72 -121.75 143.31 C-120.16 137.64 -117.17 133.12 -114 128.2 C-111.71 124.53 -109.87 120.77 -108.11 116.83 C-107 115 -107 115 -104 114 C-102.63 112.71 -101.29 111.38 -100 110 C-101.41 114 -103.39 117.49 -105.53 121.13 C-109.91 128.65 -113.21 135.44 -115.09 143.98 C-116.15 147.51 -117.95 149.96 -120 153 C-120.89 155.67 -120.89 155.67 -121.38 158.44 C-122.46 163.21 -123.93 167.54 -125.81 172.06 C-131.17 184.95 -135.2 198.33 -138 212 C-131.16 213.76 -124.86 214.26 -117.81 214.38 C-109.62 214.6 -101.79 215.34 -93.75 216.94 C-75.01 220.66 -55.16 223.26 -36.23 219.5 C-32.11 218.86 -28.04 218.72 -23.88 218.56 C-17.28 218.28 -10.78 217.74 -4.25 216.75 C-3.52 216.65 -2.8 216.56 -2.05 216.46 C3.44 215.55 6.63 213.42 11 210 C13.45 208.89 15.89 208.04 18.44 207.19 C21.78 205.64 24.21 203.38 27 201 C27.7 200.67 28.4 200.34 29.12 200 C32.76 198.06 34.76 194.35 37 191 C37.64 190.11 38.28 189.22 38.94 188.3 C41.19 184.7 42.6 181.23 44 177.25 C44.52 175.82 45.04 174.39 45.55 172.95 C45.8 172.27 46.05 171.58 46.3 170.88 C47.17 168.55 48.14 166.28 49.12 164 C51.62 157.86 53.04 151.4 54.53 144.96 C54.84 143.66 55.18 142.36 55.55 141.07 C57.04 135.76 57.35 130.75 57.31 125.25 C57.31 124.37 57.31 123.49 57.31 122.58 C57.22 116.65 56.45 111.36 54.72 105.66 C53.95 102.83 53.72 100.24 53.56 97.31 C53.24 92.68 52.03 89.38 49.97 85.25 C48.92 82.82 48.45 80.6 48 78 C46.64 70.29 43.06 63.63 39 57 C38.47 56.13 37.95 55.26 37.4 54.37 C34.33 49.41 31.19 44.87 27.27 40.55 C26 39 26 39 24.5 35.81 C22.61 32.27 20.33 31.2 17 29 C15.85 27.45 15.85 27.45 14.75 25.69 C12.06 21.62 8.53 19.37 4.51 16.71 C2.19 15.13 0.1 13.47 -2 11.62 C-5.93 8.18 -8.04 7.6 -13.3 7.65 C-18.57 8.34 -23.23 10.76 -28 13 C-29.6 13.73 -31.21 14.46 -32.81 15.19 C-33.53 15.51 -34.25 15.84 -34.99 16.18 C-37 17 -37 17 -40.5 17.88 C-44.37 19.12 -46.97 20.9 -50.26 23.22 C-54.26 25.82 -58.49 27.93 -62.77 30.02 C-66.92 32.13 -69.19 34.36 -72 38 C-72.99 38 -73.98 38 -75 38 C-73.49 33.77 -70.64 32.4 -67 30 C-66.5 28.51 -66.5 28.51 -66 27 C-63.2 25.25 -63.2 25.25 -59.69 23.44 C-58.54 22.84 -57.39 22.24 -56.2 21.62 C-54.62 20.82 -54.62 20.82 -53 20 C-52.25 19.62 -51.51 19.23 -50.74 18.84 C-49 18 -49 18 -46.5 17.12 C-43.91 16.15 -43.91 16.15 -42.14 14.05 C-39.83 11.84 -38.26 11.11 -35.25 10.12 C-34.3 9.8 -33.34 9.48 -32.36 9.14 C-31.25 8.76 -30.14 8.39 -29 8 C-26.16 6.98 -23.33 5.93 -20.5 4.88 C-19.81 4.62 -19.11 4.37 -18.4 4.11 C-5.02 -0.86 -5.02 -0.86 0 0 Z " fill="#06070A" transform="translate(429,198)"/>
<path d="M0 0 C0.66 0.33 1.32 0.66 2 1 C1.4 1.7 0.8 2.4 0.19 3.12 C-4 8.63 -6.09 14.4 -7.43 21.16 C-8.18 24.97 -8.98 28.22 -10.88 31.62 C-12.86 35.28 -13.71 38.82 -14.62 42.88 C-16.16 49.3 -18.69 54.85 -21.88 60.62 C-22.29 61.38 -22.7 62.14 -23.12 62.92 C-25.83 67.66 -28.6 70.76 -33 74 C-31.6 69.44 -29.73 65.26 -27.62 61 C-24.62 54.77 -22.59 48.7 -20.84 42.01 C-20 39 -20 39 -18.38 35.38 C-17.05 32.12 -16.55 29.46 -16.06 26 C-15.26 20.74 -13.92 17.36 -11 13 C-10.52 12.15 -10.04 11.3 -9.55 10.43 C-9.04 9.52 -8.53 8.62 -8 7.69 C-7.53 6.85 -7.05 6 -6.56 5.14 C-4.87 2.82 -3.62 2.07 -1 1 C-0.67 0.67 -0.34 0.34 0 0 Z " fill="#06070A" transform="translate(363,233)"/>
<path d="M0 0 C0.66 0.33 1.32 0.66 2 1 C0.13 3.36 -1.75 5.71 -3.62 8.06 C-4.15 8.72 -4.67 9.38 -5.21 10.05 C-7.8 13.3 -10.42 16.49 -13.17 19.61 C-15.76 22.61 -17.76 25.72 -19.69 29.19 C-22.74 34.66 -22.74 34.66 -24.65 37.18 C-26.18 39.05 -26.18 39.05 -26.94 41.88 C-28.13 45.38 -29.94 47.94 -32 51 C-32.35 52.33 -32.69 53.66 -33 55 C-33.66 56.71 -34.32 58.42 -35 60.12 C-36.44 63.96 -37.23 67.23 -37.44 71.31 C-37.74 76.37 -39.41 78.51 -43 82 C-45.54 78.19 -45.36 76.55 -45 72 C-42.55 61.17 -37.42 51.59 -32 42 C-31.57 41.23 -31.14 40.46 -30.7 39.67 C-29.25 37.07 -27.78 34.47 -26.31 31.88 C-25.84 31.02 -25.36 30.17 -24.87 29.29 C-24.41 28.49 -23.96 27.69 -23.49 26.87 C-23.08 26.15 -22.67 25.43 -22.26 24.68 C-21 23 -21 23 -18 22 C-15.92 19.79 -15.92 19.79 -13.81 17.06 C-13.02 16.08 -12.24 15.09 -11.43 14.07 C-10.63 13.06 -9.82 12.05 -9 11 C-7.5 9.12 -6 7.25 -4.5 5.38 C-3.85 4.56 -3.2 3.74 -2.53 2.9 C-1 1 -1 1 0 0 Z " fill="#06070A" transform="translate(661,333)"/>
<path d="M0 0 C-1.46 3.84 -3.26 5.01 -6.87 6.84 C-7.84 7.35 -8.8 7.85 -9.8 8.37 C-10.82 8.89 -11.83 9.41 -12.88 9.94 C-21.47 14.17 -21.47 14.17 -28 21 C-28.99 21 -29.98 21 -31 21 C-29.49 16.77 -26.64 15.4 -23 13 C-22.67 12.01 -22.34 11.02 -22 10 C-19.2 8.25 -19.2 8.25 -15.69 6.44 C-14.54 5.84 -13.39 5.24 -12.2 4.62 C-9.8 3.41 -7.41 2.19 -5 1 C-3 0 -3 0 0 0 Z " fill="#08090C" transform="translate(385,215)"/>
<path d="M0 0 C0 8.78 -8.5 20.38 -14 27 C-14.99 27 -15.98 27 -17 27 C-15.5 21.83 -13.21 17.45 -10.56 12.81 C-9.97 11.75 -9.97 11.75 -9.37 10.66 C-6.74 6.02 -4.5 3 0 0 Z " fill="#08090C" transform="translate(851,294)"/>
</svg>
