<?xml version="1.0" encoding="UTF-8"?>
<!-- Generator: visioncortex VTracer 0.6.3 -->
<svg version="1.1" xmlns="http://www.w3.org/2000/svg" width="1280" height="1280">
<path d="M0 0 C422.4 0 844.8 0 1280 0 C1280 422.4 1280 844.8 1280 1280 C857.6 1280 435.2 1280 0 1280 C0 857.6 0 435.2 0 0 Z " fill="#FCFDFF" transform="translate(0,0)"/>
<path d="M0 0 C1.06 -0.01 2.12 -0.02 3.22 -0.03 C6.71 -0.07 10.2 -0.09 13.7 -0.1 C14.9 -0.11 16.09 -0.12 17.33 -0.12 C23.66 -0.16 29.99 -0.18 36.32 -0.2 C42.85 -0.21 49.38 -0.27 55.91 -0.34 C60.95 -0.39 65.98 -0.4 71.01 -0.4 C73.42 -0.41 75.82 -0.43 78.23 -0.46 C81.6 -0.5 84.97 -0.5 88.34 -0.49 C89.33 -0.51 90.32 -0.53 91.34 -0.56 C98.85 -0.45 102.09 2.1 107.23 7.34 C108.1 7.85 108.97 8.37 109.86 8.9 C113.76 11.26 116.64 14.67 119.77 17.96 C122.74 21.01 125.51 23.21 129.23 25.34 C130.29 26.97 131.29 28.64 132.23 30.34 C134.33 32.94 136.39 35.49 138.75 37.85 C142.15 41.39 143.76 44.43 145.17 49.15 C147.08 55.51 150.19 60.13 154.23 65.34 C157.98 70.21 160.2 74.52 162.23 80.34 C162.89 81.33 163.55 82.32 164.23 83.34 C164.58 85.9 164.58 85.9 164.73 88.78 C164.94 92.57 165.5 94.99 167.23 98.34 C167.23 100.67 167.23 103 167.23 105.34 C167.86 107.02 168.53 108.69 169.23 110.34 C169.73 112.47 170.16 114.61 170.57 116.76 C171.21 119.53 171.21 119.53 172.75 122.7 C174.9 128.41 174.68 134.15 174.68 140.19 C174.7 142.02 174.7 142.02 174.72 143.89 C174.76 147.77 174.78 151.65 174.8 155.53 C174.82 159.42 174.85 163.3 174.89 167.19 C174.91 169.61 174.93 172.02 174.93 174.44 C174.95 176.08 174.95 176.08 174.96 177.76 C174.97 178.72 174.97 179.68 174.98 180.66 C175.26 183.55 176.12 185.68 177.23 188.34 C177.5 191.93 177.5 191.93 177.48 195.84 C177.49 197.13 177.49 198.42 177.5 199.74 C177.25 203.14 176.64 205.29 175.23 208.34 C174.33 211.74 173.47 215.12 172.8 218.57 C171.73 224.06 169.88 228.44 167.23 233.34 C166.61 234.67 165.98 236 165.36 237.34 C163.88 240.32 162.16 242.84 160.11 245.46 C157.61 248.67 156.45 251.44 155.23 255.34 C153.13 259.1 150.7 262.64 148.3 266.21 C146.31 269.1 146.31 269.1 145.18 271.37 C141.37 278.46 136.2 283.91 130.62 289.63 C127 293.34 124.09 297 121.23 301.34 C119.27 303.61 117.18 305.73 115.05 307.84 C114.18 308.7 114.18 308.7 113.3 309.58 C109.56 313.24 105.77 316.23 101.29 318.94 C98.92 320.55 97.09 322.39 95.11 324.46 C90.07 329.68 85.58 332.05 78.45 333.77 C74.69 334.73 71.03 335.97 67.36 337.21 C66.57 337.48 65.79 337.74 64.98 338.02 C55.08 340.58 55.08 340.58 46.95 345.92 C44.25 348.16 41.16 347.83 37.8 347.9 C32.86 347.89 32.86 347.89 28.26 349.34 C26.04 350.43 24.68 350.59 22.22 350.59 C21.43 350.59 20.64 350.59 19.83 350.6 C18.97 350.59 18.12 350.59 17.23 350.58 C16.32 350.58 15.42 350.58 14.48 350.59 C11.47 350.59 8.46 350.58 5.45 350.57 C3.35 350.57 1.25 350.57 -0.84 350.57 C-5.25 350.57 -9.65 350.56 -14.05 350.54 C-19.67 350.53 -25.29 350.52 -30.91 350.52 C-35.25 350.52 -39.58 350.52 -43.92 350.51 C-45.99 350.51 -48.06 350.51 -50.13 350.5 C-81.84 350.48 -81.84 350.48 -88.42 346.28 C-92.02 344.83 -95.54 345.09 -99.39 345.15 C-100.17 345.15 -100.94 345.15 -101.74 345.15 C-105.89 345.09 -105.89 345.09 -109.77 346.34 C-109.77 345.35 -109.77 344.36 -109.77 343.34 C-110.57 343.09 -111.37 342.84 -112.2 342.59 C-118.96 340.22 -124.84 337.38 -130.77 333.34 C-131.65 333.05 -132.54 332.76 -133.45 332.46 C-135.77 331.34 -135.77 331.34 -136.96 328.31 C-137.56 327.33 -138.15 326.35 -138.77 325.34 C-142.13 324.5 -142.13 324.5 -145.95 324.65 C-151.85 324.54 -156.4 323.86 -161.77 321.34 C-162.69 322.1 -163.62 322.86 -164.58 323.65 C-165.36 324.29 -165.36 324.29 -166.16 324.95 C-167.77 326.35 -169.26 327.82 -170.77 329.34 C-170.77 328.45 -170.77 328.45 -170.78 327.53 C-170.82 321.27 -170.89 315.01 -170.97 308.74 C-171 306.42 -171.02 304.09 -171.04 301.76 C-171.1 284.94 -171.1 284.94 -174.86 268.68 C-176.74 261.73 -176.37 254.43 -176.39 247.28 C-176.41 244.92 -176.43 242.57 -176.46 240.22 C-176.48 238.78 -176.49 237.33 -176.49 235.88 C-176.53 231.9 -177.12 228.95 -178.77 225.34 C-178.71 223.3 -178.71 223.3 -178.45 221.15 C-178.27 214.86 -180.76 209.73 -183.13 204.03 C-185.21 198.97 -186.66 194.26 -187.28 188.8 C-187.71 186.13 -187.71 186.13 -189.28 183.05 C-190.95 178.88 -191.24 175.58 -191.33 171.15 C-191.45 164.98 -191.45 164.98 -193.77 159.34 C-194.13 157.68 -194.47 156.01 -194.77 154.34 C-195.1 153.35 -195.43 152.36 -195.77 151.34 C-195.87 148.6 -195.93 145.89 -195.94 143.15 C-195.96 141.49 -195.99 139.82 -196.01 138.15 C-196.05 135.54 -196.08 132.93 -196.09 130.31 C-196.15 120.99 -196.26 112.6 -199.8 103.82 C-201.13 100.39 -201.74 96.92 -202.37 93.3 C-202.69 91.27 -202.69 91.27 -203.77 89.34 C-201.12 86.69 -198.47 84.05 -195.79 81.44 C-194.76 80.42 -193.73 79.41 -192.7 78.4 C-192.19 77.9 -191.67 77.4 -191.14 76.89 C-188.64 74.42 -186.65 72.17 -184.71 69.21 C-181.54 64.53 -177.27 61.94 -172.52 59.03 C-168.13 56.27 -164.05 53.32 -160.01 50.08 C-157.66 48.26 -155.24 46.62 -152.77 44.96 C-149.17 42.5 -146.21 39.87 -143.2 36.71 C-139.7 33.06 -136.38 30.77 -131.87 28.52 C-129.72 27.31 -128.22 25.99 -126.45 24.28 C-120.9 19.29 -113.22 17.07 -105.83 17.21 C-105.16 17.27 -104.49 17.33 -103.8 17.39 C-101.67 17.46 -101.67 17.46 -99.5 16.36 C-95.96 15.04 -92.62 15.13 -88.89 15.09 C-81.84 14.87 -76.37 13.37 -69.96 10.5 C-65.57 8.56 -61.79 7.62 -57.01 7.44 C-52.58 7.24 -48.27 6.24 -43.94 5.37 C-43.05 5.19 -42.17 5.01 -41.26 4.83 C-39.44 4.46 -37.63 4.09 -35.82 3.71 C-30.52 2.66 -25.65 2.17 -20.26 2.47 C-17.64 2.44 -17.64 2.44 -14.78 1.35 C-9.9 -0.07 -5.05 0.02 0 0 Z " fill="#FCFDFF" transform="translate(453.765380859375,227.661865234375)"/>
<path d="M0 0 C1.05 -0.04 2.1 -0.07 3.18 -0.11 C9.71 -0.15 13.67 0.79 18.8 4.88 C20.12 6.56 20.12 6.56 20.12 10.56 C20.72 10.81 21.32 11.06 21.94 11.31 C24.59 12.83 25.64 13.87 27.12 16.56 C27.31 17.93 27.45 19.31 27.56 20.69 C27.75 21.97 27.93 23.25 28.12 24.56 C29.44 25.26 30.78 25.93 32.12 26.56 C34.82 32.83 36.51 39.35 38.25 45.94 C38.77 47.9 39.29 49.87 39.82 51.84 C40.16 53.13 40.16 53.13 40.51 54.44 C41.06 56.59 41.06 56.59 42.12 58.56 C42.32 61.32 42.44 64.07 42.55 66.84 C42.87 69.69 42.87 69.69 45.14 71.36 C48.57 75.17 47.64 80 47.61 84.92 C47.63 85.7 47.64 86.48 47.66 87.28 C47.65 87.98 47.65 88.68 47.64 89.41 C47.99 91.78 47.99 91.78 50.12 93.87 C52.74 97.39 52.64 99.6 52.66 103.95 C52.68 104.99 52.68 104.99 52.7 106.05 C52.73 108.27 52.74 110.48 52.75 112.69 C52.77 114.91 52.79 117.12 52.82 119.34 C52.85 121.35 52.86 123.36 52.87 125.36 C52.88 128.72 52.88 128.72 55.12 131.56 C55.38 133.78 55.38 133.78 55.38 136.4 C55.39 137.38 55.4 138.36 55.4 139.37 C55.4 140.96 55.4 140.96 55.39 142.58 C55.39 144.22 55.39 144.22 55.4 145.89 C55.4 148.2 55.39 150.51 55.39 152.82 C55.38 156.35 55.39 159.88 55.4 163.41 C55.4 165.65 55.39 167.9 55.39 170.14 C55.39 171.2 55.4 172.25 55.4 173.34 C55.37 178.53 55.05 182.68 53.12 187.56 C52.8 189.69 52.8 189.69 52.78 191.7 C52.75 192.44 52.72 193.17 52.7 193.93 C52.67 194.7 52.65 195.46 52.62 196.25 C52.22 205.9 50.59 214.87 48.19 224.21 C47.83 225.6 47.48 226.99 47.12 228.38 C46.95 229.06 46.77 229.75 46.59 230.46 C45.48 234.81 44.73 239.1 44.12 243.56 C43.64 246.17 43.14 248.77 42.62 251.38 C42.49 252.04 42.36 252.71 42.23 253.4 C41.25 258.32 41.25 258.32 40.12 260.56 C40.09 262.49 40.11 264.42 40.17 266.35 C40.19 267.52 40.21 268.69 40.23 269.9 C40.29 272.36 40.35 274.81 40.43 277.27 C40.55 285.64 39.72 292.07 34.39 298.73 C32.54 301.42 32.82 303.71 32.81 306.94 C32.58 311.41 32.4 314.14 29.19 317.38 C26.12 319.56 26.12 319.56 24.12 319.56 C23.17 322.82 22.96 325.87 22.81 329.25 C22.45 334.64 21.48 339.55 20.12 344.75 C18.33 351.69 17.6 358.34 17.45 365.5 C17.37 368.67 17.21 371.33 16.11 374.33 C14.97 378.07 14.94 381.41 15.07 385.27 C15.1 386.76 15.12 388.25 15.14 389.74 C15.19 392.05 15.25 394.37 15.32 396.69 C15.73 412.02 15.73 412.02 12.1 418.68 C9.95 422.83 9.8 427.64 9.13 432.21 C8.49 435.75 7.18 438.57 5.6 441.8 C2.35 449.52 2.43 456.85 2.49 465.05 C2.48 466.62 2.47 468.18 2.46 469.74 C2.43 473.81 2.43 477.88 2.43 481.95 C2.44 488.49 2.41 495.02 2.37 501.56 C2.36 503.83 2.37 506.1 2.38 508.37 C2.37 509.76 2.37 511.16 2.36 512.55 C2.37 513.77 2.37 514.98 2.37 516.23 C2.12 519.65 1.28 522.34 0.12 525.56 C0.12 526.57 0.12 527.58 0.12 528.62 C0.12 531.56 0.12 531.56 -0.86 533.93 C-1.94 536.73 -2.1 538.64 -2.05 541.62 C-2.04 542.61 -2.03 543.59 -2.02 544.6 C-2 545.65 -1.99 546.7 -1.96 547.78 C-1.94 550.01 -1.92 552.25 -1.9 554.48 C-1.86 558 -1.81 561.51 -1.76 565.02 C-1.71 568.42 -1.68 571.82 -1.65 575.21 C-1.62 576.79 -1.62 576.79 -1.59 578.39 C-1.55 584 -1.93 587.63 -4.88 592.56 C-5.16 596.05 -5.16 596.05 -4.94 599.62 C-4.74 604.28 -4.97 607.32 -6.88 611.56 C-7.27 613.26 -7.63 614.97 -7.94 616.69 C-8.44 619.43 -8.99 621.91 -9.88 624.56 C-9.97 626.37 -10.01 628.18 -10.02 630 C-10.03 631.11 -10.03 632.22 -10.04 633.36 C-10.04 634.56 -10.04 635.76 -10.04 637 C-10.05 638.23 -10.05 639.46 -10.05 640.73 C-10.06 643.34 -10.06 645.94 -10.06 648.55 C-10.06 651.23 -10.07 653.9 -10.08 656.58 C-10.1 660.43 -10.1 664.27 -10.11 668.12 C-10.11 669.33 -10.12 670.53 -10.13 671.76 C-10.12 672.87 -10.12 673.98 -10.12 675.13 C-10.12 676.6 -10.12 676.6 -10.12 678.1 C-10.04 680.82 -10.04 680.82 -7.88 683.56 C-7.53 686.02 -7.53 686.02 -7.38 688.81 C-7.02 693.37 -6.59 697.31 -4.88 701.56 C-2.86 702.76 -2.86 702.76 -0.88 703.56 C-0.22 707.2 0.06 709.05 -0.88 712.56 C-4.18 716.67 -7.9 720.11 -11.88 723.56 C-15.2 722.17 -15.75 721.83 -17.38 718.38 C-17.73 717.44 -17.73 717.44 -18.09 716.48 C-18.94 714.25 -18.94 714.25 -21 711.25 C-23.22 707.55 -23.43 704.05 -23.6 699.8 C-23.74 697.28 -23.74 697.28 -25.88 694.56 C-26.13 691.98 -26.13 691.98 -26.13 688.85 C-26.14 687.68 -26.15 686.51 -26.15 685.3 C-26.15 683.41 -26.15 683.41 -26.14 681.47 C-26.14 679.52 -26.14 679.52 -26.15 677.53 C-26.15 674.79 -26.15 672.04 -26.14 669.29 C-26.12 665.77 -26.13 662.25 -26.14 658.73 C-26.15 655.37 -26.15 652.01 -26.14 648.66 C-26.14 647.39 -26.15 646.12 -26.15 644.82 C-26.15 643.65 -26.14 642.48 -26.13 641.27 C-26.13 639.72 -26.13 639.72 -26.13 638.14 C-25.88 635.56 -25.88 635.56 -23.88 632.56 C-23.46 630.12 -23.46 630.12 -23.31 627.5 C-22.97 622.75 -22.97 622.75 -21.88 620.56 C-21.75 619.22 -21.67 617.88 -21.63 616.54 C-21.6 615.74 -21.56 614.95 -21.53 614.13 C-21.47 612.47 -21.41 610.8 -21.36 609.13 C-21.31 607.94 -21.31 607.94 -21.25 606.72 C-21.23 606 -21.2 605.27 -21.18 604.52 C-20.88 602.56 -20.88 602.56 -18.88 599.56 C-18.56 597.23 -18.56 597.23 -18.59 594.6 C-18.57 593.6 -18.56 592.59 -18.55 591.55 C-18.54 590.46 -18.54 589.37 -18.53 588.25 C-18.52 587.14 -18.5 586.02 -18.49 584.87 C-18.44 581.29 -18.41 577.71 -18.38 574.12 C-18.33 569.42 -18.28 564.71 -18.22 560 C-18.21 558.92 -18.21 557.83 -18.2 556.71 C-18.19 555.7 -18.18 554.69 -18.16 553.65 C-18.15 552.76 -18.15 551.87 -18.14 550.96 C-17.86 548.39 -17.05 546.83 -15.88 544.56 C-15.88 543.45 -15.88 542.34 -15.88 541.19 C-15.88 537.56 -15.88 537.56 -14.89 534.76 C-13.77 531.23 -13.64 528.41 -13.65 524.71 C-13.65 524.05 -13.65 523.39 -13.65 522.72 C-13.65 521.29 -13.65 519.87 -13.66 518.45 C-13.67 516.19 -13.67 513.92 -13.66 511.66 C-13.63 505.22 -13.62 498.78 -13.65 492.35 C-13.66 488.4 -13.65 484.45 -13.62 480.5 C-13.61 479.01 -13.62 477.52 -13.63 476.03 C-13.74 466.16 -12.24 458.37 -8.33 449.28 C-6.33 444.19 -5.43 439.16 -4.52 433.77 C-3.88 430.56 -3.88 430.56 -2.86 428.36 C-1.6 424.77 -1.56 421.38 -1.53 417.63 C-1.51 416.5 -1.51 416.5 -1.49 415.34 C-1.44 412.93 -1.41 410.53 -1.38 408.12 C-1.33 404.96 -1.28 401.79 -1.22 398.63 C-1.21 397.91 -1.21 397.19 -1.2 396.45 C-1.12 392.1 -0.35 388.63 1.12 384.56 C1.43 382.49 1.43 382.49 1.43 380.53 C1.47 379.45 1.47 379.45 1.5 378.34 C1.52 377.59 1.54 376.84 1.56 376.06 C1.92 366.94 3.22 358.27 6.12 349.56 C6.29 346.04 6.42 342.52 6.47 338.99 C6.66 333.75 7.71 330.74 11.12 326.56 C12.01 325.8 12.9 325.04 13.81 324.25 C16.28 321.38 16.37 321.06 16.5 317.56 C16.71 313.08 18.17 310.86 20.69 307.19 C26.36 297.54 24.59 286.09 24.01 275.29 C24.13 272.44 24.73 271 26.12 268.56 C26.5 266.11 26.5 266.11 26.62 263.56 C26.79 260.88 26.92 258.97 28.13 256.57 C29.34 254.12 29.43 252.22 29.56 249.5 C29.93 244.5 31.01 240.07 32.43 235.27 C33.33 231.77 33.62 228.35 33.82 224.75 C34.12 222.56 34.12 222.56 35.12 220.71 C36.25 218.29 36.41 216.6 36.47 213.94 C36.5 213.07 36.53 212.19 36.56 211.3 C36.58 210.39 36.6 209.49 36.62 208.56 C36.67 206.77 36.72 204.98 36.78 203.19 C36.81 202 36.81 202 36.84 200.79 C37.12 198.56 37.12 198.56 38.13 196.74 C39.32 194.13 39.34 192.33 39.28 189.46 C39.26 188.44 39.24 187.43 39.22 186.38 C39.18 184.75 39.18 184.75 39.14 183.09 C39.11 181.96 39.09 180.84 39.07 179.69 C39.02 177.32 38.96 174.95 38.9 172.58 C38.81 168.94 38.74 165.31 38.67 161.67 C38.62 159.37 38.56 157.07 38.51 154.77 C38.49 153.68 38.47 152.59 38.44 151.46 C38.42 150.45 38.39 149.45 38.36 148.41 C38.34 147.52 38.32 146.63 38.3 145.71 C38.26 143.51 38.26 143.51 37.12 141.56 C37.02 139.21 36.97 136.86 36.95 134.51 C36.93 133.07 36.9 131.64 36.88 130.21 C36.84 127.95 36.81 125.69 36.8 123.43 C36.78 121.24 36.74 119.06 36.7 116.88 C36.68 114.92 36.68 114.92 36.66 112.92 C36.04 109.01 34.99 108.14 32.12 105.56 C31.64 103.55 31.64 103.55 31.66 101.45 C31.64 100.67 31.63 99.9 31.61 99.11 C31.62 97.5 31.63 95.9 31.64 94.29 C31.54 88.78 30.45 86.12 27.12 81.56 C26.59 78.89 26.59 78.89 26.5 76.38 C26.35 72.72 26.24 71.74 24.12 68.56 C23.75 66.99 23.45 65.41 23.19 63.81 C22.59 60.58 21.93 58.12 20.62 55.06 C19.31 51.99 18.72 49.63 18.19 46.38 C17.41 42.05 16.28 40.62 13.12 37.56 C12.66 36.01 12.25 34.45 11.88 32.88 C10.22 26.73 6.69 22.86 2.12 18.56 C1.36 17.83 0.6 17.09 -0.19 16.33 C-3.64 14.06 -5.84 14.09 -9.94 14.19 C-11.75 14.21 -11.75 14.21 -13.6 14.23 C-17.56 14.61 -17.56 14.61 -20.88 16.56 C-22.89 19.4 -22.89 19.4 -24.75 22.75 C-26.96 26.53 -29.15 30.13 -32.12 33.38 C-35.21 36.75 -36.96 40.45 -38.88 44.56 C-40.5 47.56 -40.5 47.56 -41.88 49.56 C-42.53 49.56 -43.2 49.56 -43.88 49.56 C-44.23 50.82 -44.58 52.08 -44.94 53.38 C-46.21 57.19 -47.84 60.28 -50.06 63.62 C-53.09 68.2 -55.71 72.86 -58.19 77.75 C-58.52 78.4 -58.86 79.06 -59.21 79.73 C-61.17 83.66 -62.38 87.37 -63.35 91.64 C-64.2 94.74 -65.69 97.39 -67.25 100.19 C-68.13 101.78 -68.13 101.78 -69.02 103.41 C-70.87 106.56 -70.87 106.56 -73.09 109.73 C-75.31 113.25 -75.03 115.47 -74.88 119.56 C-75.19 120.19 -75.51 120.82 -75.84 121.47 C-77.05 123.92 -77.14 125.72 -77.25 128.44 C-77.66 133.23 -78.96 135.67 -81.88 139.56 C-82.72 141.15 -83.53 142.76 -84.31 144.38 C-85.95 147.73 -87.66 151.01 -89.5 154.25 C-92.98 160.51 -95.04 165.13 -94.8 172.32 C-94.95 176.78 -96.96 180.77 -98.96 184.7 C-102.47 192.46 -102.12 199.9 -101.64 208.24 C-101.4 214.36 -102.09 218.12 -105.59 223.21 C-106.01 223.66 -106.44 224.1 -106.88 224.56 C-107.53 224.56 -108.2 224.56 -108.88 224.56 C-109.69 232.27 -109.69 232.27 -109.69 240 C-109.65 244.67 -111.01 248.47 -112.59 252.83 C-114.57 258.6 -116.15 264.47 -117.77 270.35 C-118.01 271.23 -118.26 272.1 -118.51 273 C-118.72 273.78 -118.94 274.56 -119.16 275.37 C-119.88 277.57 -120.82 279.51 -121.88 281.56 C-122.27 283.09 -122.63 284.64 -122.94 286.19 C-123.41 288.54 -123.8 290.41 -124.88 292.56 C-124.94 294.17 -124.94 295.78 -124.9 297.39 C-124.89 298.36 -124.88 299.32 -124.87 300.31 C-124.83 302.34 -124.79 304.37 -124.75 306.4 C-124.73 307.85 -124.73 307.85 -124.71 309.33 C-124.7 310.21 -124.68 311.1 -124.66 312.01 C-124.9 314.86 -125.77 316.94 -126.88 319.56 C-127.11 322.04 -127.27 324.52 -127.38 327 C-127.57 331.95 -128.19 335.91 -129.88 340.56 C-130.23 342.23 -130.56 343.89 -130.88 345.56 C-132.13 350.38 -133.68 355.08 -135.41 359.75 C-135.68 360.49 -135.95 361.23 -136.23 361.99 C-136.77 363.47 -137.33 364.94 -137.89 366.41 C-139.59 371.02 -139.9 374.61 -139.88 379.56 C-140.64 381.96 -141.48 384.34 -142.38 386.69 C-145.06 394.26 -145.26 401.23 -144.78 409.2 C-144.4 417.4 -147.05 422.74 -152.25 429 C-159.11 437.59 -164.2 446.63 -168.88 456.56 C-169.4 457.68 -169.93 458.8 -170.48 459.96 C-172.05 464.01 -172.87 467.86 -173.56 472.12 C-173.69 472.85 -173.82 473.58 -173.96 474.33 C-174.5 477.56 -174.88 480.5 -174.83 483.78 C-174.88 486.87 -175.73 488.72 -176.88 491.56 C-177.11 494.02 -177.33 496.48 -177.56 498.94 C-178.86 508.33 -184.46 513.12 -191.31 519.16 C-195.65 523.05 -198.3 527.05 -199.62 532.81 C-201.21 537.57 -203.85 540.88 -206.9 544.82 C-209.53 548.48 -211.51 551.99 -212.53 556.4 C-214.64 561.37 -218.5 564.52 -222.38 568.19 C-223.93 569.68 -225.48 571.17 -227.03 572.66 C-227.72 573.32 -228.41 573.97 -229.12 574.64 C-230.85 576.53 -231.86 578.22 -232.88 580.56 C-232.21 580.89 -231.56 581.22 -230.88 581.56 C-231.54 581.56 -232.19 581.56 -232.88 581.56 C-233.14 582.15 -233.41 582.74 -233.68 583.35 C-234.9 585.61 -236.16 587.11 -237.96 588.92 C-238.58 589.56 -239.21 590.19 -239.85 590.84 C-240.53 591.52 -241.2 592.19 -241.89 592.88 C-242.59 593.58 -243.29 594.28 -244 595 C-245.47 596.48 -246.95 597.95 -248.42 599.43 C-250.68 601.68 -252.92 603.94 -255.16 606.21 C-256.59 607.64 -258.02 609.08 -259.46 610.51 C-260.12 611.18 -260.79 611.86 -261.48 612.56 C-264.73 615.78 -267.34 618.32 -271.88 619.56 C-279.78 613.25 -279.78 613.25 -282.06 608.94 C-283.97 605.38 -285.97 603.33 -288.88 600.56 C-289.95 599.34 -291.01 598.11 -292.06 596.88 C-297.17 590.98 -302.66 585.24 -308.65 580.25 C-311.52 576.78 -311.42 574.04 -311.31 569.75 C-311.4 563.57 -312.18 559.95 -316.45 555.38 C-318.62 552.62 -319.01 549.75 -319.55 546.35 C-319.7 544.54 -319.7 544.54 -320.88 543.56 C-321.13 539.78 -321.06 535.98 -321.06 532.19 C-321.07 531.12 -321.09 530.05 -321.1 528.95 C-321.1 527.93 -321.1 526.91 -321.11 525.85 C-321.11 524.91 -321.11 523.97 -321.12 523 C-320.88 520.56 -320.88 520.56 -318.88 517.56 C-316.5 509.9 -316.56 501.97 -316.52 494.02 C-316.5 492.04 -316.5 492.04 -316.48 490.02 C-316.45 486.43 -316.43 482.84 -316.4 479.25 C-316.39 476.25 -316.36 473.24 -316.34 470.24 C-316.28 463.15 -316.23 456.06 -316.19 448.98 C-316.14 441.67 -316.09 434.37 -316.02 427.07 C-315.96 420.78 -315.92 414.5 -315.87 408.21 C-315.85 404.47 -315.82 400.72 -315.79 396.97 C-315.75 392.8 -315.73 388.63 -315.71 384.46 C-315.69 383.22 -315.68 381.98 -315.67 380.7 C-315.66 379.57 -315.66 378.43 -315.66 377.26 C-315.65 375.78 -315.65 375.78 -315.64 374.27 C-315.89 371.35 -316.73 369.25 -317.88 366.56 C-318.08 364.02 -318.2 361.57 -318.22 359.03 C-318.23 358.32 -318.25 357.6 -318.26 356.87 C-318.32 353.83 -318.36 350.8 -318.41 347.76 C-318.44 345.54 -318.49 343.32 -318.53 341.09 C-318.54 340.07 -318.54 340.07 -318.55 339.03 C-318.63 335.09 -319.25 332.14 -320.88 328.56 C-321.24 326.47 -321.55 324.36 -321.81 322.25 C-322.57 316.92 -323.84 312.52 -325.88 307.56 C-326.94 302.89 -327.57 298.14 -328.28 293.4 C-328.72 290.64 -328.72 290.64 -329.89 288.67 C-331.01 286.28 -331.17 284.57 -331.25 281.94 C-331.29 281.07 -331.32 280.19 -331.36 279.3 C-331.4 277.94 -331.4 277.94 -331.44 276.56 C-331.5 274.77 -331.56 272.98 -331.63 271.19 C-331.65 270.4 -331.68 269.6 -331.7 268.79 C-331.8 266.61 -331.8 266.61 -332.38 264.74 C-333.1 261.57 -333.07 258.4 -333.12 255.16 C-333.15 253.7 -333.19 252.24 -333.22 250.77 C-333.27 248.48 -333.31 246.19 -333.35 243.89 C-333.39 241.67 -333.44 239.45 -333.5 237.23 C-333.5 236.55 -333.51 235.87 -333.52 235.17 C-333.63 230.94 -334.4 227.51 -335.88 223.56 C-336.25 221.47 -336.59 219.36 -336.88 217.25 C-337.5 212.73 -338.33 208.33 -339.35 203.89 C-339.86 201.62 -340.34 199.34 -340.8 197.06 C-342.31 189.86 -343.73 183.05 -347 176.4 C-348.5 173.25 -349.19 169.96 -349.88 166.56 C-350.12 165.41 -350.37 164.26 -350.62 163.07 C-352.07 156.06 -353.05 149.28 -353.31 142.12 C-353.57 135.77 -354.93 131.16 -357.88 125.56 C-360.29 119.75 -361.14 114.44 -361.57 108.19 C-361.93 105.05 -362.82 102.51 -364.05 99.62 C-365.37 96.35 -366.26 92.96 -367.23 89.57 C-367.7 87.59 -367.7 87.59 -368.88 86.56 C-369.62 87.92 -369.62 87.92 -370.38 89.31 C-373.91 95.66 -377.48 101.57 -382.08 107.22 C-389.53 116.94 -394.17 126.3 -396.25 138.31 C-397.51 145.59 -399.77 151.84 -402.88 158.56 C-403.88 160.96 -404.88 163.35 -405.88 165.75 C-407.53 169.62 -409.23 173.32 -411.38 176.94 C-416.36 185.67 -419.22 195.58 -422.39 205.08 C-423.32 207.87 -424.25 210.65 -425.19 213.44 C-425.42 214.14 -425.66 214.84 -425.9 215.57 C-428.98 224.67 -432.39 233.37 -436.94 241.85 C-439.69 247 -441.49 252.11 -443.05 257.74 C-444.03 261.09 -445.4 264.12 -446.89 267.26 C-447.87 269.55 -448.52 271.77 -449.16 274.17 C-450.85 279.9 -453.46 284.92 -456.25 290.19 C-461.3 300 -465.69 309.96 -469.81 320.19 C-470.08 320.85 -470.35 321.52 -470.63 322.2 C-473.87 330.25 -476.91 338.34 -479.68 346.57 C-481.22 350.44 -483.38 353.46 -485.87 356.77 C-497.42 372.83 -506.14 391.46 -514.39 409.36 C-518.45 418.09 -523.61 425.77 -529.25 433.56 C-529.79 434.32 -530.33 435.07 -530.88 435.85 C-536.62 443.81 -543.07 450.94 -550 457.88 C-550.59 458.48 -551.19 459.09 -551.8 459.71 C-554.98 462.9 -557.95 465.32 -561.88 467.56 C-563.25 468.81 -564.59 470.1 -565.88 471.44 C-566.51 472.09 -567.15 472.75 -567.81 473.43 C-568.49 474.13 -569.17 474.84 -569.88 475.56 C-571.1 476.71 -571.1 476.71 -572.35 477.87 C-575.24 480.95 -577.21 484.07 -579.25 487.75 C-579.83 488.78 -579.83 488.78 -580.42 489.84 C-583.26 495.05 -585.46 500.37 -587.5 505.94 C-589.68 511.86 -591.99 516.67 -595.87 521.7 C-598.67 525.7 -600.89 529.95 -603.19 534.25 C-608.31 543.76 -613.68 553.56 -620.79 561.77 C-624.05 566.14 -626.39 570.97 -628.88 575.81 C-629.4 576.81 -629.92 577.81 -630.45 578.84 C-633.15 584.04 -635.7 589.25 -637.93 594.67 C-639.3 597.42 -641.25 599.51 -643.3 601.78 C-649.05 608.3 -651.85 615.01 -654.59 623.2 C-656.07 627.07 -657.98 630.08 -660.39 633.41 C-662.55 636.55 -664.13 639.92 -665.79 643.34 C-667.99 647.85 -670.34 651.03 -673.88 654.56 C-674.89 656.22 -675.89 657.89 -676.88 659.56 C-678.83 662.26 -680.85 664.92 -682.88 667.56 C-682.21 667.89 -681.56 668.22 -680.88 668.56 C-681.54 668.56 -682.19 668.56 -682.88 668.56 C-683.12 669.12 -683.36 669.69 -683.61 670.27 C-685.13 673.03 -686.94 675.04 -689.12 677.31 C-689.87 678.11 -690.62 678.91 -691.39 679.73 C-694.44 681.98 -696.18 681.93 -699.88 681.56 C-699.88 675.26 -694.05 668.82 -689.81 664.42 C-689.15 663.81 -688.49 663.19 -687.81 662.56 C-683.72 658.71 -681.22 654.39 -678.53 649.49 C-677.09 646.94 -675.54 644.66 -673.81 642.31 C-671.13 638.41 -669.64 634.32 -668.12 629.88 C-664.9 620.5 -659.49 613.2 -653.25 605.57 C-651.43 602.9 -650.33 600.12 -649.12 597.12 C-644.78 586.75 -639.75 577.39 -632.71 568.58 C-625.25 559.12 -619.78 548.55 -614.55 537.75 C-613.02 534.84 -611.37 532.41 -609.38 529.81 C-606.21 525.53 -604.56 521.28 -602.81 516.31 C-596.81 499.66 -586.03 484.35 -573.88 471.56 C-573.22 470.86 -572.56 470.16 -571.88 469.44 C-569.66 467.11 -567.43 464.8 -565.19 462.5 C-564.49 461.77 -563.79 461.05 -563.06 460.3 C-559.19 456.41 -555.7 453.58 -550.61 451.48 C-546.94 449.55 -545.05 445.97 -542.88 442.56 C-542.15 441.46 -541.43 440.36 -540.69 439.22 C-534.87 430.16 -529.85 420.91 -525.17 411.22 C-517.64 395.67 -509.8 380.3 -500.11 365.95 C-495.79 359.47 -492.99 353.2 -490.56 345.81 C-484.99 329.65 -478.31 314.08 -470.5 298.87 C-467.81 293.57 -465.75 288.19 -463.88 282.56 C-462.01 277.44 -460.01 272.37 -457.96 267.32 C-457.2 265.4 -456.47 263.47 -455.75 261.53 C-453.67 255.89 -451.4 250.54 -448.59 245.23 C-444.44 237.16 -441.63 228.73 -438.81 220.12 C-429.03 190.53 -429.03 190.53 -422.88 181.56 C-420.93 177.24 -419.26 172.82 -417.58 168.39 C-416.97 166.82 -416.34 165.26 -415.71 163.7 C-413.6 158.37 -412.38 153.15 -411.44 147.5 C-410.29 140.79 -408.43 135.37 -404.88 129.56 C-404.35 128.67 -403.82 127.78 -403.28 126.86 C-400.45 122.24 -397.46 118 -393.94 113.88 C-389.97 109.09 -387.46 103.98 -384.82 98.4 C-382.47 93.52 -379.78 89.38 -376.22 85.26 C-374.66 83.49 -374.66 83.49 -373.88 80.56 C-374.82 78.58 -374.82 78.58 -376.25 76.62 C-378.1 73.95 -379.46 71.82 -379.88 68.56 C-377.96 66.27 -376.11 64.33 -373.94 62.31 C-373.07 61.48 -373.07 61.48 -372.19 60.63 C-370.76 59.26 -369.32 57.91 -367.88 56.56 C-364.9 58.21 -361.93 59.86 -358.88 61.56 C-359.2 63.21 -359.54 64.86 -359.88 66.56 C-359.11 66.77 -358.35 66.98 -357.56 67.19 C-354.02 69 -353.31 70.93 -351.88 74.56 C-351.88 75.22 -351.88 75.88 -351.88 76.56 C-350.88 76.89 -349.89 77.22 -348.88 77.56 C-349.2 78.22 -349.54 78.88 -349.88 79.56 C-349.34 81.69 -348.72 83.79 -348.06 85.88 C-346.28 91.81 -345.13 97.56 -344.37 103.72 C-343.74 107.36 -342.46 110.38 -340.84 113.68 C-338.05 119.65 -337.43 125.25 -337.16 131.75 C-336.99 136.04 -336.55 139.95 -335.47 144.09 C-334.81 146.85 -334.34 149.63 -333.87 152.43 C-332.85 158.36 -331.62 163.64 -328.91 169.05 C-326.92 173.87 -326.02 179.05 -324.89 184.12 C-323.68 189.54 -322.15 194.86 -320.61 200.2 C-319.88 203.56 -319.88 203.56 -319.89 207.05 C-320.04 210.57 -320.04 210.57 -318.9 213.8 C-317.82 217.77 -317.59 221.18 -317.53 225.29 C-317.52 226 -317.5 226.71 -317.49 227.44 C-317.43 230.45 -317.39 233.46 -317.34 236.47 C-317.31 238.68 -317.26 240.89 -317.22 243.1 C-317.2 244.41 -317.18 245.73 -317.16 247.08 C-316.89 250.39 -316.19 252.56 -314.88 255.56 C-314.79 258 -314.8 260.44 -314.88 262.88 C-314.98 268.53 -314.47 273.14 -312.88 278.56 C-312.32 281.61 -311.83 284.67 -311.34 287.73 C-311.19 288.67 -311.03 289.6 -310.88 290.56 C-310.74 291.38 -310.61 292.19 -310.48 293.03 C-309.73 296.16 -308.55 298.97 -307.31 301.94 C-305.35 306.91 -304.55 310.3 -304.88 315.56 C-304.56 316.29 -304.24 317.02 -303.91 317.77 C-302.6 321.3 -302.56 324.6 -302.53 328.31 C-302.52 329.05 -302.5 329.78 -302.49 330.54 C-302.43 333.67 -302.39 336.8 -302.34 339.93 C-302.31 342.23 -302.26 344.52 -302.22 346.81 C-302.21 347.87 -302.21 347.87 -302.2 348.94 C-302.14 351.85 -302.01 354.23 -300.87 356.93 C-299.75 359.89 -299.62 362.1 -299.62 365.26 C-299.62 366.4 -299.61 367.54 -299.6 368.71 C-299.61 370.56 -299.61 370.56 -299.62 372.46 C-299.61 374.43 -299.61 374.43 -299.61 376.43 C-299.6 380.02 -299.6 383.61 -299.61 387.2 C-299.61 390.96 -299.61 394.71 -299.6 398.47 C-299.6 404.78 -299.6 411.09 -299.61 417.4 C-299.63 424.69 -299.62 431.98 -299.61 439.28 C-299.6 445.54 -299.6 451.81 -299.61 458.07 C-299.61 461.81 -299.61 465.55 -299.6 469.29 C-299.6 473.46 -299.61 477.63 -299.62 481.8 C-299.61 483.04 -299.61 484.28 -299.6 485.55 C-299.61 486.69 -299.62 487.82 -299.62 488.99 C-299.62 490.47 -299.62 490.47 -299.62 491.98 C-299.88 494.66 -300.54 496.24 -301.88 498.56 C-302.27 499.91 -302.62 501.26 -302.94 502.62 C-303.49 505.01 -304.1 507.23 -304.88 509.56 C-305.1 512.5 -305.06 515.43 -305.06 518.38 C-305.07 519.17 -305.09 519.96 -305.1 520.78 C-305.11 525.49 -304.55 529.11 -302.88 533.56 C-302.79 534.86 -302.71 536.16 -302.62 537.5 C-302.29 540.98 -301.43 542.23 -298.88 544.56 C-295.32 548.17 -295.51 551.76 -295.5 556.56 C-295.49 561.9 -295.49 561.9 -293.47 566.73 C-291.57 568.36 -291.57 568.36 -289.4 569.8 C-286.16 572.06 -283.47 574.71 -280.69 577.5 C-280.16 578.02 -279.64 578.54 -279.1 579.08 C-275.79 582.44 -273.17 585.77 -270.89 589.89 C-269.3 592.5 -267.06 594.44 -264.88 596.56 C-263.56 598.88 -263.56 598.88 -262.88 600.56 C-256.7 599.72 -252.7 594.05 -248.88 589.56 C-247.69 587.64 -246.57 585.68 -245.5 583.69 C-241.16 575.68 -234.46 568.62 -226.88 563.56 C-225.85 561.68 -224.9 559.76 -224 557.81 C-222.3 554.25 -220.77 551.13 -218.06 548.25 C-215.59 545.72 -215.59 545.72 -215.56 542.31 C-214.33 535.61 -209.15 530.78 -204.38 526.12 C-197.16 518.73 -192.98 513 -193.01 502.41 C-192.87 499.45 -192.23 498.13 -190.88 495.56 C-190.46 493.04 -190.46 493.04 -190.31 490.44 C-189.97 485.76 -189.97 485.76 -188.88 483.56 C-188.72 482.13 -188.6 480.69 -188.5 479.25 C-188.08 475.22 -187.12 472.97 -184.88 469.56 C-184.36 468.15 -183.86 466.73 -183.38 465.31 C-179.84 456.16 -173.78 447.4 -167.64 439.79 C-166.05 437.79 -165.09 436.17 -164.19 433.81 C-162.88 430.56 -162.88 430.56 -161.88 429.56 C-161.74 427.99 -161.67 426.41 -161.63 424.83 C-161.6 423.86 -161.56 422.89 -161.53 421.9 C-161.47 419.86 -161.41 417.82 -161.36 415.77 C-161.32 414.8 -161.29 413.83 -161.25 412.83 C-161.22 411.49 -161.22 411.49 -161.18 410.13 C-160.85 407.32 -160.01 405.15 -158.88 402.56 C-158.48 401.05 -158.13 399.53 -157.81 398 C-156.91 393.68 -156.91 393.68 -156.38 391.72 C-155.8 389.44 -155.8 389.44 -155.56 386.55 C-154.67 380.02 -152.01 373.82 -149.85 367.63 C-147.89 361.92 -146.28 356.37 -145.27 350.42 C-144.88 348.56 -144.88 348.56 -143.88 347.56 C-143.58 343.91 -143.43 340.25 -143.25 336.59 C-143.07 333.81 -142.6 331.34 -141.84 328.66 C-140.4 323.34 -140.81 318.09 -141.04 312.63 C-141.18 306.85 -140.13 302.88 -137.88 297.56 C-137.71 296.55 -137.54 295.54 -137.38 294.5 C-136.76 290.89 -135.32 287.93 -133.88 284.56 C-133.1 281.92 -132.49 279.25 -131.88 276.56 C-130.39 270.48 -128.91 264.39 -126.75 258.5 C-125.66 254.87 -125.95 251.51 -126.12 247.75 C-126.27 240.54 -124.28 236.16 -119.88 230.56 C-119.55 230.23 -119.22 229.9 -118.88 229.56 C-118.8 227.75 -118.79 225.93 -118.8 224.12 C-118.69 201.9 -118.69 201.9 -113.32 191.67 C-110.79 186.81 -110.48 183.34 -110.89 177.95 C-110.87 174.53 -109.58 172.31 -107.88 169.4 C-106.66 167.34 -106.66 167.34 -105.88 163.88 C-104.78 160.23 -103.36 158.41 -100.88 155.56 C-99.53 153.57 -98.2 151.57 -96.88 149.56 C-96.09 148.64 -96.09 148.64 -95.29 147.7 C-93.59 145.13 -93.48 143.56 -93.38 140.5 C-92.75 131.33 -90.62 120.31 -83.88 113.56 C-82.86 111.24 -81.86 108.9 -80.88 106.56 C-80.22 105.57 -79.55 104.58 -78.88 103.56 C-78.79 102.55 -78.71 101.54 -78.62 100.5 C-78.11 96.03 -75.8 92.85 -73.43 89.12 C-71.96 86.71 -70.83 84.35 -69.75 81.75 C-68.61 79.04 -67.71 77.37 -65.81 75.06 C-63.54 72.13 -62.79 69.5 -61.88 65.94 C-60.75 63.27 -59.13 61.48 -57.24 59.31 C-54.63 55.96 -52.89 52.1 -51 48.31 C-47.42 41.33 -43.67 34.8 -38.88 28.56 C-38.37 27.88 -37.87 27.21 -37.36 26.51 C-35.88 24.51 -34.38 22.54 -32.88 20.56 C-32.33 19.83 -31.79 19.1 -31.23 18.35 C-22.16 6.35 -15.5 0.03 0 0 Z " fill="#07090B" transform="translate(1160.875,229.4375)"/>
<path d="M0 0 C1.43 -0.01 1.43 -0.01 2.9 -0.02 C3.94 -0.02 4.99 -0.02 6.07 -0.02 C7.18 -0.03 8.28 -0.03 9.42 -0.04 C13.08 -0.05 16.74 -0.06 20.4 -0.06 C22.94 -0.07 25.48 -0.07 28.02 -0.08 C32.67 -0.09 37.31 -0.1 41.96 -0.1 C48.79 -0.1 55.63 -0.12 62.47 -0.15 C68.39 -0.17 74.31 -0.18 80.24 -0.18 C82.76 -0.19 85.28 -0.19 87.8 -0.21 C91.32 -0.22 94.84 -0.22 98.36 -0.22 C99.4 -0.23 100.45 -0.23 101.52 -0.24 C110.72 -0.19 110.72 -0.19 114.35 3.14 C114.35 4.13 114.35 5.12 114.35 6.14 C115.05 6.35 115.75 6.56 116.48 6.77 C120.75 8.81 123.54 12.2 126.71 15.62 C129.34 18.38 131.76 20.51 135.13 22.34 C138.98 24.5 139.48 26.25 141.35 30.14 C143.33 31.49 145.33 32.83 147.35 34.14 C147.97 36.2 147.97 36.2 148.35 38.14 C148.97 38.56 149.6 38.98 150.25 39.41 C152.94 41.63 153.31 43.36 154.22 46.7 C156.49 54.06 159.79 60.16 164.8 66.01 C170.94 73.28 175.1 82.19 175.18 91.74 C175.37 94.53 176.28 96.57 177.35 99.14 C177.65 101.21 177.65 101.21 177.78 103.27 C178.35 109.3 179.8 115.32 182.07 120.94 C184.67 127.66 184.79 133.96 184.79 141.09 C184.81 142.92 184.81 142.92 184.83 144.79 C184.87 148.65 184.89 152.52 184.91 156.39 C184.93 160.27 184.96 164.16 185 168.04 C185.02 170.45 185.04 172.86 185.04 175.27 C185.06 176.9 185.06 176.9 185.07 178.58 C185.08 179.53 185.08 180.49 185.09 181.47 C185.37 184.36 186.21 186.49 187.35 189.14 C188.5 199.12 186.85 207.28 183.54 216.58 C182.22 220.5 181.59 224.26 181.06 228.34 C179.81 235.92 175.67 241.95 170.18 247.22 C168.06 249.14 168.06 249.14 167.41 252.52 C166.37 256.05 165.17 257.75 162.75 260.45 C158.84 265.15 156.08 270.8 153.14 276.13 C152.75 276.83 152.36 277.54 151.96 278.26 C151.19 279.65 150.43 281.04 149.68 282.43 C147.28 286.78 144.64 290.41 141.35 294.14 C140.72 294.85 140.1 295.57 139.47 296.3 C138.91 296.93 138.35 297.56 137.78 298.2 C135.83 300.41 134 302.6 132.22 304.95 C130.14 307.38 128.19 308.72 125.35 310.14 C124.69 310.14 124.03 310.14 123.35 310.14 C123.1 311.04 122.86 311.93 122.61 312.85 C121.23 316.43 119.79 318.14 117.03 320.77 C115.82 321.93 115.82 321.93 114.59 323.11 C112.99 324.55 111.34 325.93 109.66 327.27 C107.6 328.93 106.19 330.48 104.53 332.52 C101.82 335.78 98.87 338.14 95.43 340.6 C91.34 343.62 87.35 346.98 83.88 350.72 C82.06 352.41 80.32 353.23 78.03 354.2 C77.24 354.54 76.45 354.88 75.64 355.23 C73.74 355.99 71.79 356.64 69.85 357.27 C67.19 357.87 67.19 357.87 66.35 360.14 C66.35 359.48 66.35 358.82 66.35 358.14 C65.56 358.59 64.78 359.05 63.97 359.52 C60.97 360.86 58.94 361.48 55.78 362.02 C47.85 363.46 39.9 366.12 33.35 370.89 C29.08 373.78 24.83 373.78 19.79 373.9 C17.04 374.09 14.93 374.46 12.31 375.14 C7.02 376.34 1.93 376.42 -3.47 376.4 C-4.51 376.4 -5.55 376.41 -6.62 376.41 C-10.04 376.42 -13.45 376.41 -16.87 376.41 C-19.25 376.41 -21.63 376.41 -24.01 376.41 C-28.99 376.41 -33.96 376.41 -38.94 376.4 C-45.33 376.39 -51.72 376.4 -58.1 376.41 C-63.01 376.42 -67.92 376.41 -72.83 376.41 C-75.19 376.41 -77.55 376.41 -79.9 376.41 C-83.18 376.42 -86.47 376.41 -89.75 376.4 C-91.22 376.41 -91.22 376.41 -92.72 376.41 C-93.61 376.41 -94.5 376.4 -95.41 376.39 C-96.19 376.39 -96.96 376.39 -97.76 376.39 C-99.65 376.14 -99.65 376.14 -101.65 374.14 C-108.58 371.96 -115.19 371.79 -122.41 371.75 C-128.04 371.6 -131.1 370.74 -135.65 367.14 C-136.77 366.67 -137.88 366.19 -139.03 365.7 C-142.58 364.17 -145.58 362.36 -148.8 360.26 C-150.75 359 -150.75 359 -153.53 358.14 C-155.65 357.14 -155.65 357.14 -157.65 352.14 C-162.27 351.81 -166.89 351.48 -171.65 351.14 C-171.22 352.81 -170.79 354.48 -170.34 356.2 C-170.1 357.14 -169.86 358.08 -169.6 359.05 C-168.74 362.2 -168.74 362.2 -167.12 365.12 C-164.97 370.11 -165.25 375.15 -165.28 380.5 C-165.27 382.75 -165.25 385.01 -165.23 387.26 C-165.22 390.78 -165.22 394.29 -165.22 397.8 C-165.22 401.22 -165.19 404.64 -165.16 408.06 C-165.17 409.07 -165.18 410.08 -165.18 411.13 C-165.12 417.83 -164.11 423.94 -162.65 430.45 C-160.12 442.06 -160.11 453.43 -160.19 465.27 C-160.2 467.51 -160.2 469.76 -160.2 472.01 C-160.2 476.68 -160.22 481.34 -160.24 486.01 C-160.28 491.99 -160.28 497.97 -160.28 503.95 C-160.28 508.57 -160.29 513.19 -160.31 517.82 C-160.32 520.02 -160.32 522.23 -160.32 524.44 C-160.33 527.51 -160.34 530.57 -160.36 533.64 C-160.36 534.55 -160.36 535.46 -160.36 536.39 C-160.37 537.23 -160.38 538.06 -160.39 538.92 C-160.39 539.64 -160.39 540.37 -160.4 541.11 C-160.65 543.14 -160.65 543.14 -161.66 545.15 C-162.78 547.39 -162.89 548.76 -162.85 551.25 C-162.84 552.06 -162.83 552.87 -162.83 553.71 C-162.81 554.59 -162.79 555.47 -162.77 556.37 C-162.76 557.31 -162.75 558.24 -162.74 559.2 C-162.71 561.23 -162.68 563.26 -162.65 565.28 C-162.6 568.49 -162.57 571.71 -162.55 574.92 C-162.47 584.05 -162.38 593.18 -162.24 602.31 C-162.15 607.9 -162.1 613.49 -162.07 619.08 C-162.05 621.2 -162.02 623.33 -161.98 625.45 C-161.92 628.43 -161.9 631.41 -161.89 634.39 C-161.86 635.26 -161.84 636.14 -161.81 637.03 C-161.86 643.15 -163.63 646.14 -167.89 650.48 C-168.76 651.3 -168.76 651.3 -169.65 652.14 C-170.54 652.99 -171.43 653.83 -172.34 654.7 C-174.65 656.14 -174.65 656.14 -176.8 655.73 C-177.41 655.54 -178.02 655.34 -178.65 655.14 C-178.7 642.84 -178.74 630.54 -178.76 618.24 C-178.77 612.53 -178.78 606.82 -178.81 601.11 C-178.83 595.59 -178.84 590.08 -178.84 584.57 C-178.85 582.47 -178.86 580.37 -178.87 578.26 C-178.88 575.32 -178.88 572.37 -178.88 569.43 C-178.89 568.56 -178.9 567.69 -178.9 566.79 C-178.88 560.71 -178.88 560.71 -177.66 557.67 C-176.07 553.67 -176.38 549.67 -176.4 545.41 C-176.39 544.44 -176.39 543.46 -176.39 542.46 C-176.38 539.24 -176.38 536.02 -176.39 532.8 C-176.39 530.56 -176.39 528.32 -176.38 526.08 C-176.38 521.39 -176.38 516.69 -176.39 512 C-176.41 505.98 -176.4 499.97 -176.39 493.96 C-176.38 489.34 -176.38 484.71 -176.39 480.08 C-176.39 477.86 -176.39 475.65 -176.38 473.43 C-176.38 470.33 -176.39 467.23 -176.4 464.13 C-176.39 463.22 -176.39 462.3 -176.38 461.37 C-176.42 456.22 -177.02 452.02 -178.65 447.14 C-180.53 438.59 -180.79 430.21 -180.75 421.5 C-180.75 420.44 -180.75 419.39 -180.74 418.31 C-180.74 416.7 -180.74 416.7 -180.73 415.05 C-179.78 393.34 -179.78 393.34 -184.84 372.61 C-189.22 363.14 -191.33 354.8 -191.33 344.37 C-191.35 343.21 -191.37 342.04 -191.39 340.84 C-191.48 334.88 -191.47 328.91 -191.4 322.94 C-191.32 312.46 -191.27 303.44 -194.73 293.48 C-196.65 286.54 -196.26 279.23 -196.28 272.08 C-196.3 269.73 -196.32 267.38 -196.35 265.02 C-196.37 263.58 -196.38 262.13 -196.38 260.68 C-196.42 256.7 -197.01 253.75 -198.65 250.14 C-198.8 248.37 -198.87 246.6 -198.9 244.83 C-199.31 238.66 -201.14 233.68 -203.42 228.01 C-205.31 223.27 -206.52 218.76 -207.14 213.67 C-207.6 210.94 -207.6 210.94 -209.17 207.84 C-210.84 203.68 -211.13 200.38 -211.22 195.95 C-211.33 191.54 -211.51 188.07 -213.65 184.14 C-215.36 178.36 -215.94 173.22 -215.93 167.21 C-215.95 165.51 -215.97 163.81 -215.99 162.11 C-216.01 159.47 -216.03 156.83 -216.04 154.19 C-215.99 140.94 -215.99 140.94 -219.7 128.32 C-220.71 126.01 -221.21 123.86 -221.65 121.39 C-222.25 118.39 -223.07 116.13 -224.65 113.52 C-228.82 106.48 -229.1 99.72 -229.22 91.7 C-229.27 90.7 -229.32 89.71 -229.37 88.68 C-229.44 83.19 -229.02 79.87 -225.37 75.64 C-224.16 74.44 -222.93 73.27 -221.65 72.14 C-220.99 71.54 -220.33 70.94 -219.65 70.33 C-218.01 68.9 -216.34 67.51 -214.65 66.14 C-212.88 67.92 -213.42 70.52 -213.34 72.93 C-213.28 74.68 -213.28 74.68 -213.21 76.47 C-213.17 77.7 -213.13 78.93 -213.09 80.2 C-213.05 81.44 -213.01 82.67 -212.96 83.95 C-212.86 87.01 -212.75 90.08 -212.65 93.14 C-211.99 93.14 -211.33 93.14 -210.65 93.14 C-210.16 94.13 -210.16 94.13 -209.65 95.14 C-209.29 94.71 -208.92 94.29 -208.55 93.85 C-184.47 66.05 -184.47 66.05 -168.65 58.14 C-167.77 57.59 -166.88 57.04 -165.96 56.48 C-163.65 55.14 -163.65 55.14 -161.65 55.14 C-161.47 54.48 -161.28 53.82 -161.09 53.14 C-157.94 46.56 -152.38 41.53 -146.65 37.14 C-145.73 36.42 -144.8 35.7 -143.84 34.95 C-140.9 33.28 -139.49 32.87 -136.28 32.39 C-132.26 31.65 -130.68 30.41 -128.03 27.33 C-121.52 20.19 -111.36 18.14 -102.03 17.45 C-100.65 17.42 -100.65 17.42 -99.24 17.38 C-96.63 17.27 -96.63 17.27 -94.34 16.14 C-90.68 14.78 -87.13 14.93 -83.28 14.89 C-75.3 14.65 -69.77 12.87 -62.48 9.57 C-56.91 7.26 -50.99 6.95 -45.04 6.46 C-41.79 6.36 -41.79 6.36 -39.65 5.14 C-37.29 4.79 -34.94 4.48 -32.57 4.2 C-31.51 4.08 -31.51 4.08 -30.44 3.95 C-28.2 3.67 -25.96 3.41 -23.72 3.14 C-21.48 2.87 -19.24 2.61 -17 2.34 C-15.61 2.17 -14.22 2 -12.82 1.84 C-8.41 1.3 -4.45 0.02 0 0 Z M-22.65 15.14 C-25.15 15.27 -25.15 15.27 -27.42 15.14 C-32.94 15.03 -38.02 15.95 -43.4 17.08 C-45.21 17.44 -47.02 17.8 -48.83 18.17 C-49.67 18.34 -50.51 18.51 -51.37 18.68 C-55.64 19.54 -59.75 20.17 -64.09 20.33 C-68.73 20.74 -72.51 22.26 -76.72 24.14 C-83.15 26.99 -88.92 27.84 -95.93 27.91 C-100.02 27.96 -102.92 28.53 -106.65 30.14 C-108.69 30.2 -108.69 30.2 -110.72 30.02 C-120.54 29.85 -128.1 33.91 -135.35 40.2 C-137.41 41.94 -139.38 43.25 -141.72 44.58 C-145 46.53 -147.44 48.83 -150.09 51.58 C-153.58 55.19 -157.04 57.95 -161.28 60.62 C-163.95 62.33 -166.48 64.19 -169.03 66.08 C-172.77 68.83 -176.56 71.35 -180.53 73.77 C-184.93 76.52 -187.59 78.97 -190.65 83.14 C-195.2 88.72 -200.15 93.49 -205.62 98.16 C-207.88 100.06 -207.88 100.06 -208.65 103.14 C-207.99 104.13 -207.33 105.12 -206.65 106.14 C-206.13 108.27 -206.13 108.27 -205.72 110.7 C-205.29 113.23 -204.85 115.63 -203.94 118.03 C-200.7 126.92 -201.16 136.12 -201.09 145.45 C-201.07 148.05 -201.04 150.64 -201 153.23 C-200.98 154.83 -200.96 156.43 -200.96 158.04 C-200.9 162.2 -200.44 165.38 -198.65 169.14 C-198.31 170.8 -197.97 172.47 -197.65 174.14 C-197.32 174.8 -196.99 175.46 -196.65 176.14 C-196.56 177.93 -196.47 179.71 -196.42 181.5 C-196.19 188.24 -195.51 193.62 -192.62 199.8 C-191.57 202.34 -191.17 204.61 -190.78 207.33 C-190.05 212.12 -188.45 216.28 -186.53 220.7 C-184.28 225.93 -183.04 230.26 -183.64 235.99 C-183.81 238.21 -183.81 238.21 -182.67 240.3 C-181.41 243.83 -181.38 247.09 -181.38 250.79 C-181.36 252.31 -181.34 253.82 -181.32 255.34 C-181.3 257.69 -181.28 260.05 -181.27 262.41 C-181.24 270.16 -181.2 277.24 -178.66 284.65 C-175.2 295.39 -175.97 306.84 -175.9 318.02 C-175.88 320.36 -175.85 322.71 -175.82 325.05 C-175.74 330.75 -175.69 336.44 -175.65 342.14 C-174.49 340.96 -174.49 340.96 -173.3 339.77 C-168.86 335.36 -168.86 335.36 -165.65 334.14 C-164.09 334.82 -162.53 335.53 -161.02 336.33 C-157.71 337.47 -154.43 337.34 -150.97 337.39 C-144.12 337.7 -144.12 337.7 -142.08 339.65 C-141.24 341.47 -140.45 343.3 -139.65 345.14 C-137.68 346.22 -135.76 346.82 -133.6 347.46 C-130.82 348.43 -128.92 350.29 -126.65 352.14 C-123.59 353.32 -120.5 354.18 -117.34 355.08 C-116.46 355.43 -115.57 355.78 -114.65 356.14 C-114.16 357.63 -114.16 357.63 -113.65 359.14 C-113.32 358.81 -112.99 358.48 -112.65 358.14 C-109.87 358.01 -107.13 357.96 -104.34 357.95 C-103.57 357.94 -102.8 357.93 -102 357.92 C-97.94 357.91 -95.22 358.05 -91.65 360.14 C-78 364.53 -62.64 363.3 -48.42 363.31 C-46.42 363.31 -44.41 363.31 -42.4 363.32 C-38.22 363.32 -34.04 363.33 -29.86 363.33 C-24.51 363.33 -19.16 363.34 -13.8 363.36 C-9.67 363.37 -5.53 363.37 -1.4 363.37 C0.58 363.37 2.55 363.37 4.53 363.38 C7.28 363.39 10.03 363.39 12.78 363.38 C13.59 363.39 14.4 363.39 15.24 363.4 C19.16 363.38 21.96 363.16 25.35 361.14 C29.14 360.84 32.91 360.76 36.72 360.68 C40.91 360.06 42.18 358.85 45.35 356.14 C47.91 355.01 50.4 354.01 53.03 353.08 C53.74 352.82 54.45 352.56 55.19 352.3 C61.34 350.08 67.54 348.09 73.89 346.51 C82.83 344.15 88.22 339.37 94.52 332.84 C96.4 331.09 98.28 329.85 100.47 328.52 C104.88 325.71 108.47 322.32 112.16 318.64 C112.71 318.09 113.26 317.55 113.83 316.99 C117.15 313.61 119.76 310.13 122.35 306.14 C123.95 304.41 123.95 304.41 125.53 302.95 C131.9 296.77 137.52 290.17 141.35 282.14 C142.13 280.79 142.95 279.46 143.78 278.14 C144.21 277.46 144.64 276.78 145.09 276.07 C146.16 274.43 147.28 272.81 148.41 271.2 C150.02 268.66 151.13 266.39 152.28 263.64 C153.53 260.7 154.78 258.4 156.91 256.02 C159.11 253.42 160.31 251.27 161.52 248.12 C162.52 245.71 163.75 243.45 164.97 241.14 C167.04 237.04 167.8 233.72 168.35 229.14 C169.02 227.14 169.71 225.14 170.41 223.14 C172.73 215.84 174.45 206.07 171.34 198.78 C170.24 195.87 170.09 193.71 170.09 190.61 C170.08 189.52 170.08 188.44 170.07 187.32 C170.07 186.15 170.07 184.99 170.07 183.79 C170.05 181.3 170.03 178.82 170.01 176.33 C169.99 172.43 169.97 168.52 169.96 164.62 C169.95 160.84 169.92 157.07 169.88 153.29 C169.89 151.56 169.89 151.56 169.9 149.8 C169.82 143.09 168.88 137.71 166.32 131.5 C164.02 125.92 163.15 120.09 162.35 114.14 C161.81 111.72 161.13 109.5 160.35 107.14 C160.22 105.39 160.12 103.64 160.03 101.89 C159.59 96.5 158.28 93.63 155.35 89.14 C154.66 87.44 154.66 87.44 153.97 85.7 C152.62 82.75 151.42 80.78 149.47 78.27 C144.91 72.39 141.71 66.44 139.35 59.39 C137.75 54.81 136.07 52.35 132.35 49.14 C131.1 47.8 129.87 46.45 128.66 45.08 C128.08 44.43 127.49 43.78 126.9 43.11 C125.35 41.14 125.35 41.14 124.51 39.14 C122.79 36.19 120.18 35 117.35 33.14 C115.22 31.21 113.26 29.15 111.28 27.08 C107.83 23.45 104.72 20.66 100.35 18.14 C99.11 16.88 99.11 16.88 97.86 15.59 C93.57 12.01 89.03 12.46 83.68 12.54 C82.61 12.54 81.55 12.53 80.46 12.53 C76.95 12.52 73.45 12.55 69.94 12.58 C67.5 12.59 65.06 12.59 62.62 12.59 C57.51 12.6 52.39 12.62 47.28 12.65 C40.73 12.7 34.18 12.71 27.64 12.72 C22.6 12.72 17.56 12.74 12.52 12.76 C10.1 12.76 7.69 12.77 5.27 12.78 C1.9 12.79 -1.48 12.81 -4.86 12.83 C-5.85 12.83 -6.85 12.84 -7.87 12.84 C-13.21 12.89 -17.59 13.46 -22.65 15.14 Z " fill="#07090B" transform="translate(458.6549987792969,214.85955810546875)"/>
</svg>
